<svg width="70" height="70" viewBox="0 0 70 70" fill="none" xmlns="http://www.w3.org/2000/svg">
<path d="M34.9997 64.1663C29.2311 64.1663 23.592 62.4558 18.7956 59.2509C13.9991 56.046 10.2608 51.4908 8.0532 46.1613C5.84565 40.8318 5.26805 34.9673 6.39345 29.3096C7.51885 23.6518 10.2967 18.4548 14.3757 14.3757C18.4548 10.2967 23.6518 7.51885 29.3096 6.39345C34.9673 5.26805 40.8318 5.84565 46.1613 8.0532C51.4908 10.2608 56.046 13.9991 59.2509 18.7956C62.4558 23.592 64.1663 29.2311 64.1663 34.9997C64.1579 42.7326 61.0822 50.1463 55.6143 55.6143C50.1463 61.0822 42.7326 64.1579 34.9997 64.1663Z" fill="#F3F3F3"/>
<path d="M34.9997 5.83301C29.2311 5.83301 23.592 7.5436 18.7956 10.7485C13.9991 13.9534 10.2608 18.5086 8.0532 23.8381C5.84565 29.1676 5.26805 35.032 6.39345 40.6898C7.51885 46.3476 10.2967 51.5446 14.3757 55.6236C18.4548 59.7027 23.6518 62.4805 29.3096 63.6059C34.9673 64.7313 40.8318 64.1537 46.1613 61.9462C51.4908 59.7386 56.046 56.0002 59.2509 51.2038C62.4558 46.4074 64.1663 40.7683 64.1663 34.9997C64.1579 27.2668 61.0822 19.8531 55.6143 14.3851C50.1463 8.91714 42.7326 5.8415 34.9997 5.83301ZM11.6664 34.9997C11.6736 33.0306 11.9314 31.0704 12.4334 29.1663H17.838C17.3859 33.0421 17.3859 36.9573 17.838 40.833H12.4334C11.9314 38.929 11.6736 36.9688 11.6664 34.9997ZM23.333 34.9997C23.3346 33.0484 23.4681 31.0996 23.7326 29.1663H32.083V40.833H23.7326C23.4681 38.8998 23.3346 36.9509 23.333 34.9997ZM37.9164 12.5355C41.4998 15.1686 44.0197 18.9998 45.0184 23.333H37.9164V12.5355ZM32.083 12.5355V23.333H24.9809C25.9796 18.9998 28.4996 15.1686 32.083 12.5355ZM32.083 46.6663V57.4668C28.499 54.8329 25.979 51.0006 24.9809 46.6663H32.083ZM37.9164 57.4668V46.6663H45.0184C44.0204 51.0006 41.5003 54.8329 37.9164 57.4668ZM37.9164 40.833V29.1663H46.2668C46.8011 33.0369 46.8011 36.9625 46.2668 40.833H37.9164ZM52.1614 29.1663H57.5659C58.59 32.9878 58.59 37.0115 57.5659 40.833H52.1614C52.6135 36.9573 52.6135 33.0421 52.1614 29.1663ZM55.1772 23.333H51.0851C50.4351 20.7359 49.4918 18.2211 48.2734 15.8372C51.0955 17.8005 53.4521 20.3593 55.1772 23.333ZM21.7259 15.8372C20.5076 18.2211 19.5643 20.7359 18.9143 23.333H14.8222C16.5481 20.359 18.9029 17.8002 21.7259 15.8372ZM14.8222 46.6663H18.9143C19.5641 49.2644 20.5074 51.7802 21.7259 54.1651C18.9039 52.2018 16.5472 49.64 14.8222 46.6663ZM48.2734 54.1651C49.4917 51.7811 50.435 49.2664 51.0851 46.6693H55.1772C53.4521 49.6429 51.0955 52.2018 48.2734 54.1651Z" fill="#704EED"/>
</svg>
