<svg width="70" height="70" viewBox="0 0 70 70" fill="none" xmlns="http://www.w3.org/2000/svg">
<path d="M5.83301 26.25H64.1663V32.0833H5.83301V26.25Z" fill="#F3F3F3"/>
<path d="M55.4163 14.583H14.583C12.2645 14.5899 10.0429 15.514 8.40347 17.1535C6.76403 18.7929 5.83993 21.0145 5.83301 23.333V26.2497H64.1663V23.333C64.1594 21.0145 63.2353 18.7929 61.5959 17.1535C59.9564 15.514 57.7349 14.5899 55.4163 14.583ZM5.83301 49.583C5.83993 51.9015 6.76403 54.1231 8.40347 55.7625C10.0429 57.402 12.2645 58.3261 14.583 58.333H55.4163C57.7349 58.3261 59.9564 57.402 61.5959 55.7625C63.2353 54.1231 64.1594 51.9015 64.1663 49.583V32.083H5.83301V49.583Z" fill="#704EED"/>
<path d="M29.1667 43.7503H20.4167C19.6431 43.7503 18.9013 43.443 18.3543 42.8961C17.8073 42.3491 17.5 41.6072 17.5 40.8337C17.5 40.0601 17.8073 39.3182 18.3543 38.7713C18.9013 38.2243 19.6431 37.917 20.4167 37.917H29.1667C29.9402 37.917 30.6821 38.2243 31.2291 38.7713C31.776 39.3182 32.0833 40.0601 32.0833 40.8337C32.0833 41.6072 31.776 42.3491 31.2291 42.8961C30.6821 43.443 29.9402 43.7503 29.1667 43.7503Z" fill="#F3F3F3"/>
</svg>
