<svg width="70" height="70" viewBox="0 0 70 70" fill="none" xmlns="http://www.w3.org/2000/svg">
<path d="M58.3337 14.583H11.667C9.34706 14.5853 7.12281 15.5079 5.48237 17.1484C3.84193 18.7888 2.91931 21.0131 2.91699 23.333V46.6663C2.91931 48.9863 3.84193 51.2105 5.48237 52.851C7.12281 54.4914 9.34706 55.414 11.667 55.4163H58.3337C60.6536 55.414 62.8778 54.4914 64.5183 52.851C66.1587 51.2105 67.0814 48.9863 67.0837 46.6663V23.333C67.0814 21.0131 66.1587 18.7888 64.5183 17.1484C62.8778 15.5079 60.6536 14.5853 58.3337 14.583ZM35.0003 43.7555C32.6781 43.7555 30.4511 42.833 28.809 41.191C27.167 39.5489 26.2445 37.3219 26.2445 34.9997C26.2445 32.6775 27.167 30.4504 28.809 28.8084C30.4511 27.1663 32.6781 26.2438 35.0003 26.2438C37.3225 26.2438 39.5496 27.1663 41.1916 28.8084C42.8337 30.4504 43.7562 32.6775 43.7562 34.9997C43.7562 37.3219 42.8337 39.5489 41.1916 41.191C39.5496 42.833 37.3225 43.7555 35.0003 43.7555Z" fill="#704EED"/>
<path d="M17.4997 37.9163C19.1105 37.9163 20.4163 36.6105 20.4163 34.9997C20.4163 33.3888 19.1105 32.083 17.4997 32.083C15.8888 32.083 14.583 33.3888 14.583 34.9997C14.583 36.6105 15.8888 37.9163 17.4997 37.9163Z" fill="#F3F3F3"/>
<path d="M52.4997 37.9163C54.1105 37.9163 55.4163 36.6105 55.4163 34.9997C55.4163 33.3888 54.1105 32.083 52.4997 32.083C50.8888 32.083 49.583 33.3888 49.583 34.9997C49.583 36.6105 50.8888 37.9163 52.4997 37.9163Z" fill="#F3F3F3"/>
<path d="M35 43.7558C39.8357 43.7558 43.7558 39.8357 43.7558 35C43.7558 30.1643 39.8357 26.2441 35 26.2441C30.1643 26.2441 26.2441 30.1643 26.2441 35C26.2441 39.8357 30.1643 43.7558 35 43.7558Z" fill="#F3F3F3"/>
</svg>
