<svg width="70" height="70" viewBox="0 0 70 70" fill="none" xmlns="http://www.w3.org/2000/svg">
<path d="M47.7111 30.8439C48.2857 26.9647 45.3632 24.8764 41.3674 23.4851L42.6653 18.2293L39.5007 17.4301L38.2378 22.5489C37.4065 22.3389 36.552 22.1405 35.7032 21.9451L36.9749 16.7943L33.8103 15.9951L32.5153 21.2509C31.84 21.0981 31.1662 20.9387 30.494 20.7726L30.497 20.7551L26.1336 19.6526L25.2936 23.0709C25.2936 23.0709 27.6386 23.6164 27.592 23.6484C28.5049 23.7651 29.1582 24.5935 29.0649 25.5093L25.5153 39.9118C25.4708 40.0577 25.3977 40.1932 25.3003 40.3106C25.2029 40.4279 25.0831 40.5247 24.9479 40.5953C24.8128 40.6659 24.6649 40.7088 24.5129 40.7217C24.3609 40.7345 24.2079 40.717 24.0628 40.6701C24.0949 40.7197 21.7645 40.0926 21.7645 40.0926L20.1924 43.756L24.3107 44.7943C25.0778 44.9868 25.8274 45.191 26.5653 45.3805L25.2557 50.7005L28.4174 51.4968L29.7153 46.2351C30.5786 46.4743 31.4157 46.693 32.2353 46.8972L30.9432 52.1326L34.1078 52.9318L35.4174 47.6234C40.8132 48.6559 44.8703 48.2389 46.5795 43.3068C46.9307 42.6115 47.134 41.8509 47.1765 41.0731C47.2191 40.2952 47.1 39.517 46.8268 38.7875C46.5536 38.058 46.1322 37.393 45.5891 36.8345C45.046 36.276 44.3931 35.8362 43.6715 35.5426C44.7681 35.3143 45.7586 34.7301 46.4891 33.881C47.2196 33.0318 47.6492 31.9652 47.7111 30.8468V30.8439ZM40.4807 41.0989C39.5036 45.0714 32.8886 42.9247 30.742 42.3822L32.4803 35.3414C34.624 35.8809 41.5045 36.9543 40.4807 41.0989ZM41.4607 30.7884C40.5682 34.4022 35.0616 32.5676 33.2766 32.1155L34.8516 25.728C36.6366 26.1772 42.3882 27.0172 41.4607 30.7884Z" fill="#F3F3F3"/>
<path d="M34.8508 25.7246L33.2758 32.115C35.0608 32.5642 40.5675 34.4017 41.46 30.7879C42.3875 27.0167 36.6358 26.1767 34.8508 25.7246ZM32.4795 35.3409L30.7412 42.3846C32.8879 42.9242 39.5029 45.0709 40.4829 41.0984C41.5037 36.9538 34.6233 35.8804 32.4795 35.3409Z" fill="#704EED"/>
<path d="M34.9997 5.83301C18.8909 5.83301 5.83301 18.8909 5.83301 34.9997C5.83301 51.1084 18.8909 64.1663 34.9997 64.1663C51.1084 64.1663 64.1663 51.1084 64.1663 34.9997C64.1663 18.8909 51.1084 5.83301 34.9997 5.83301ZM47.7105 30.8434C47.6492 31.9623 47.2199 33.0296 46.4893 33.8794C45.7588 34.7291 44.768 35.3137 43.6709 35.5422C44.3917 35.8358 45.0439 36.2755 45.5865 36.8335C46.129 37.3916 46.5501 38.056 46.8233 38.7848C47.0964 39.5136 47.2157 40.291 47.1737 41.0682C47.1316 41.8454 46.9291 42.6054 46.5788 43.3005C44.8697 48.2384 40.8126 48.6555 35.4168 47.623L34.1072 52.9313L30.9426 52.1322L32.2347 46.8968C31.418 46.6926 30.578 46.4738 29.7147 46.2347L28.4168 51.4963L25.2551 50.7001L26.5676 45.3801C25.8268 45.1905 25.0772 44.9863 24.3101 44.7938L20.1918 43.7555L21.7638 40.0922C21.7638 40.0922 24.0972 40.7193 24.0622 40.6726L24.0768 40.6755C24.2213 40.7201 24.3733 40.7356 24.5239 40.7213C24.6745 40.707 24.8208 40.6631 24.9544 40.5921C25.088 40.5211 25.2063 40.4244 25.3024 40.3076C25.3986 40.1907 25.4707 40.0561 25.5147 39.9113L29.0643 25.5088C29.1098 25.0679 28.9812 24.6266 28.7061 24.279C28.431 23.9314 28.031 23.705 27.5913 23.648C27.638 23.6159 25.293 23.0705 25.293 23.0705L26.133 19.6522L30.4963 20.7547L30.4934 20.7722C31.1497 20.9355 31.8263 21.093 32.5147 21.2505L33.8097 15.9947L36.9743 16.7938L35.7026 21.9447C36.5513 22.143 37.4059 22.3384 38.2401 22.5484L39.5001 17.4297L42.6647 18.2288L41.3668 23.4847C45.3626 24.8759 48.2851 26.9643 47.7105 30.8434Z" fill="#704EED"/>
</svg>
