<svg width="621" height="621" viewBox="0 0 621 621" fill="none" xmlns="http://www.w3.org/2000/svg">
<path d="M439.875 582.188H181.125C174.263 582.188 167.681 579.461 162.829 574.609C157.976 569.756 155.25 563.175 155.25 556.312V64.6875C155.25 57.825 157.976 51.2436 162.829 46.3911C167.681 41.5386 174.263 38.8125 181.125 38.8125H439.875C446.737 38.8125 453.319 41.5386 458.171 46.3911C463.024 51.2436 465.75 57.825 465.75 64.6875V556.312C465.75 563.175 463.024 569.756 458.171 574.609C453.319 579.461 446.737 582.188 439.875 582.188Z" fill="#F7F7FB"/>
<path d="M310.5 549.844C321.218 549.844 329.906 541.155 329.906 530.438C329.906 519.72 321.218 511.031 310.5 511.031C299.782 511.031 291.094 519.72 291.094 530.438C291.094 541.155 299.782 549.844 310.5 549.844Z" fill="black"/>
<path d="M336.375 77.625H284.625C281.194 77.625 277.903 78.9881 275.477 81.4143C273.051 83.8406 271.688 87.1313 271.688 90.5625C271.688 93.9937 273.051 97.2844 275.477 99.7107C277.903 102.137 281.194 103.5 284.625 103.5H336.375C339.806 103.5 343.097 102.137 345.523 99.7107C347.949 97.2844 349.312 93.9937 349.312 90.5625C349.312 87.1313 347.949 83.8406 345.523 81.4143C343.097 78.9881 339.806 77.625 336.375 77.625Z" fill="black"/>
<path d="M439.875 25.875H181.125C159.726 25.875 142.312 43.2889 142.312 64.6875V556.312C142.312 577.711 159.726 595.125 181.125 595.125H439.875C461.274 595.125 478.688 577.711 478.688 556.312V64.6875C478.688 43.2889 461.274 25.875 439.875 25.875ZM168.188 64.6875C168.188 57.5589 173.996 51.75 181.125 51.75H439.875C447.004 51.75 452.812 57.5589 452.812 64.6875V129.375H168.188V64.6875ZM452.812 556.312C452.812 563.441 447.004 569.25 439.875 569.25H181.125C173.996 569.25 168.188 563.441 168.188 556.312V491.625H452.812V556.312ZM452.812 465.75H168.188V155.25H452.812V465.75Z" fill="black"/>
<g clip-path="url(#clip0_327_198)">
<path d="M235.086 368.23H326.624" stroke="#467010" stroke-width="24" stroke-linecap="round" stroke-linejoin="round"/>
<path d="M268.372 401.517V218.441H330.784C345.13 218.441 358.888 224.14 369.032 234.284C379.176 244.428 384.875 258.186 384.875 272.532C384.875 286.878 379.176 300.636 369.032 310.78C358.888 320.924 345.13 326.622 330.784 326.622H235.086" stroke="#467010" stroke-width="24" stroke-linecap="round" stroke-linejoin="round"/>
</g>
<defs>
<clipPath id="clip0_327_198">
<rect width="266.291" height="266.291" fill="white" transform="translate(176.836 176.834)"/>
</clipPath>
</defs>
</svg>
