<svg width="5347" height="5347" viewBox="0 0 5347 5347" fill="none" xmlns="http://www.w3.org/2000/svg">
<path d="M4725.63 1038.68C4850.95 1202.88 4957.04 1381.27 5041.75 1570.26L2638.71 3365.52L1634.41 2727.49V1959.92L2638.71 2597.94L4725.63 1038.68Z" fill="#21A038"/>
<path d="M609.46 2673.43C609.46 2638.98 610.289 2604.77 611.947 2570.75L3.31471 2540.53C1.24313 2584.61 0.000735503 2629.13 0.000735503 2674.05C-0.25822 3025.05 67.8652 3372.64 200.465 3696.88C333.064 4021.14 527.527 4315.66 772.701 4563.56L1204.42 4126.25C1015.69 3935.76 865.976 3709.34 763.872 3460.01C661.769 3210.69 609.293 2943.36 609.46 2673.43Z" fill="url(#paint0_linear_260_2985)"/>
<path d="M2638.16 617.62C2672.13 617.62 2705.89 618.881 2739.45 620.56L2769.9 3.528C2726.27 1.42854 2682.35 0.378936 2638.16 0.378936C2291.66 -0.0493029 1948.5 68.8913 1628.37 203.242C1308.24 337.593 1017.45 534.708 772.695 783.269L1204.41 1220.8C1392.39 1029.47 1615.82 877.681 1861.88 774.167C2107.93 670.653 2371.74 617.45 2638.16 617.62Z" fill="url(#paint1_linear_260_2985)"/>
<path d="M2638.17 4729.4C2604.2 4729.4 2570.43 4729.4 2536.67 4726.67L2506.22 5343.5C2550 5345.74 2593.99 5346.86 2638.17 5346.86C2984.53 5347.22 3327.52 5278.24 3647.48 5143.85C3967.44 5009.46 4258.04 4812.32 4502.61 4563.76L4071.72 4126.45C3883.71 4317.67 3660.3 4469.37 3414.29 4572.85C3168.29 4676.33 2904.53 4729.54 2638.17 4729.4Z" fill="url(#paint2_linear_260_2985)"/>
<path d="M3781.73 976.254L4294.65 593.102C3825.83 208.367 3240.63 -1.06798 2637.38 0.00409552V617.455C3045.87 616.942 3444.88 742.052 3781.73 976.254Z" fill="url(#paint3_linear_260_2985)"/>
<path d="M5276.14 2673.52C5276.47 2512.9 5262.61 2352.55 5234.7 2194.43L4666.89 2618.52C4666.89 2636.79 4666.89 2655.05 4666.89 2673.52C4667.04 2960.79 4607.62 3244.88 4492.5 3507.38C4377.37 3769.88 4209.09 4004.94 3998.59 4197.31L4408.15 4656.05C4681.82 4405.67 4900.51 4099.8 5050.03 3758.28C5199.57 3416.74 5276.6 3047.17 5276.14 2673.52Z" fill="#21A038"/>
<path d="M2638.18 4729.46C2354.7 4729.56 2074.37 4669.32 1815.32 4552.65C1556.28 4435.98 1324.3 4265.47 1134.41 4052.17L681.977 4467.03C929.004 4744.42 1230.8 4966.09 1567.8 5117.67C1904.8 5269.24 2269.47 5347.35 2638.18 5346.91V4729.46Z" fill="url(#paint4_linear_260_2985)"/>
<path d="M1277.75 1149.62L868.41 690.883C594.664 941.217 375.896 1247.07 226.291 1588.6C76.689 1930.14 -0.407869 2299.72 0.0016227 2673.4H609.462C609.336 2386.15 668.762 2102.06 783.886 1839.56C899.011 1577.06 1067.27 1342 1277.75 1149.62Z" fill="url(#paint5_linear_260_2985)"/>
<defs>
<linearGradient id="paint0_linear_260_2985" x1="895.961" y1="4486.52" x2="214.087" y2="2541.54" gradientUnits="userSpaceOnUse">
<stop offset="0.14" stop-color="#F1E813"/>
<stop offset="0.3" stop-color="#E6E418"/>
<stop offset="0.58" stop-color="#C9DA26"/>
<stop offset="0.89" stop-color="#A2CC39"/>
</linearGradient>
<linearGradient id="paint1_linear_260_2985" x1="946.707" y1="892.441" x2="2667.52" y2="245.37" gradientUnits="userSpaceOnUse">
<stop offset="0.06" stop-color="#0FA7DF"/>
<stop offset="0.54" stop-color="#0098F8"/>
<stop offset="0.92" stop-color="#0290EA"/>
</linearGradient>
<linearGradient id="paint2_linear_260_2985" x1="2466.04" y1="4974.2" x2="4407.93" y2="4541.33" gradientUnits="userSpaceOnUse">
<stop offset="0.12" stop-color="#A2CC39"/>
<stop offset="0.28" stop-color="#86C239"/>
<stop offset="0.87" stop-color="#219F38"/>
</linearGradient>
<linearGradient id="paint3_linear_260_2985" x1="2510.6" y1="206.801" x2="4172.51" y2="712.849" gradientUnits="userSpaceOnUse">
<stop offset="0.06" stop-color="#0290EA"/>
<stop offset="0.79" stop-color="#0C89CA"/>
</linearGradient>
<linearGradient id="paint4_linear_260_2985" x1="834.859" y1="4391.86" x2="2645.48" y2="5059.57" gradientUnits="userSpaceOnUse">
<stop offset="0.13" stop-color="#F1E813"/>
<stop offset="0.3" stop-color="#EAE616"/>
<stop offset="0.53" stop-color="#D8DF1F"/>
<stop offset="0.8" stop-color="#BAD52D"/>
<stop offset="0.98" stop-color="#A2CC39"/>
</linearGradient>
<linearGradient id="paint5_linear_260_2985" x1="227.047" y1="2748.14" x2="968.523" y2="844.906" gradientUnits="userSpaceOnUse">
<stop offset="0.07" stop-color="#A2CC39"/>
<stop offset="0.26" stop-color="#81C45E"/>
<stop offset="0.92" stop-color="#0FA7DF"/>
</linearGradient>
</defs>
</svg>
