<svg width="1490" height="1515" viewBox="0 0 1490 1515" fill="none" xmlns="http://www.w3.org/2000/svg">
<path d="M745 1494.02C1152.59 1494.02 1483.02 1163.23 1483.02 755.169C1483.02 347.112 1152.59 16.3154 745 16.3154C337.405 16.3154 6.98438 347.112 6.98438 755.169C6.98438 1163.23 337.405 1494.02 745 1494.02Z" fill="#00AAE5"/>
<path d="M947.548 834.416C924.266 827.423 900.985 825.093 880.032 825.093C859.079 827.423 835.798 818.1 824.157 799.454L817.172 790.131C803.204 769.154 803.204 743.516 817.172 722.539L824.157 710.885C835.798 694.569 854.422 685.246 875.376 685.246C900.985 685.246 926.594 680.585 952.204 666.6C1015.06 633.969 1056.97 571.039 1054.64 501.116C1052.31 400.893 968.501 321.646 866.063 326.308C779.923 330.969 707.751 400.893 698.438 487.131C693.782 533.746 707.751 575.7 731.032 610.662C745.001 631.639 745.001 659.608 731.032 680.585L728.704 682.916C717.063 699.231 698.438 708.554 679.813 708.554H668.173C644.891 708.554 623.938 694.569 614.626 673.593C584.36 612.993 521.501 573.369 449.329 575.7C356.204 578.031 279.376 654.946 277.047 748.177C272.391 850.731 353.876 934.639 456.313 934.639C526.157 934.639 586.688 895.016 614.626 836.746C623.938 815.769 644.891 801.785 668.173 801.785H677.485C698.438 801.785 717.063 811.108 726.376 827.423L738.016 843.739C751.985 862.385 749.657 888.023 738.016 906.669C717.063 939.3 707.751 976.593 712.407 1018.55C719.391 1102.45 789.235 1170.05 870.719 1179.37C984.798 1191.02 1077.92 1095.46 1068.61 983.585C1063.95 915.993 1015.06 855.392 947.548 834.416Z" fill="#FEFEFE"/>
</svg>
