<svg width="1913" height="1913" viewBox="0 0 1913 1913" fill="none" xmlns="http://www.w3.org/2000/svg">
<g clip-path="url(#clip0_416_120)">
<path d="M956.5 1913C428.93 1913 0 1484.07 0 956.5C0 428.93 428.93 0 956.5 0C1484.07 0 1913 428.93 1913 956.5C1913 1484.07 1484.07 1913 956.5 1913Z" fill="black"/>
<path d="M845.904 484.228V312.357H1061.12V482.733H1322.66C1313.69 564.933 1343.58 644.143 1280.81 720.364C1156.77 871.312 1043.18 1031.23 926.609 1186.66C925.114 1188.15 925.114 1191.14 923.62 1200.11H1334.62V1433.26H1061.12V1600.64H847.399V1436.24H576.889C581.372 1352.55 561.943 1273.34 623.219 1198.61C748.76 1047.67 863.839 887.751 981.907 730.826C983.401 727.837 984.896 723.353 987.885 715.88H609.768V484.228H845.904Z" fill="white"/>
</g>
<defs>
<clipPath id="clip0_416_120">
<rect width="1913" height="1913" fill="white"/>
</clipPath>
</defs>
</svg>
