<svg width="240" height="240" viewBox="0 0 240 240" fill="none" xmlns="http://www.w3.org/2000/svg">
<path d="M231.393 147.991C216.034 209.599 153.635 247.092 92.0203 231.729C30.4311 216.37 -7.06218 153.967 8.30364 92.3647C23.656 30.7502 86.0546 -6.74589 147.651 8.61319C209.261 23.9723 246.752 86.3816 231.391 147.992L231.393 147.991H231.393Z" fill="#F7931A"/>
<path d="M170.71 103.616C172.999 88.3117 161.348 80.0852 145.416 74.5974L150.584 53.8668L137.965 50.7223L132.933 70.9071C129.616 70.0797 126.209 69.3 122.823 68.5271L127.891 48.2091L115.279 45.0647L110.108 65.7886C107.362 65.1635 104.666 64.5457 102.05 63.8948L102.065 63.8296L84.6622 59.4839L81.3053 72.9622C81.3053 72.9622 90.6678 75.1083 90.4705 75.2404C95.5806 76.5158 96.5047 79.8986 96.3513 82.5799L90.4637 106.197C90.8156 106.286 91.272 106.416 91.7757 106.618C91.3547 106.513 90.9067 106.399 90.4418 106.288L82.1895 139.372C81.565 140.925 79.9798 143.255 76.4071 142.37C76.5335 142.553 67.2351 140.081 67.2351 140.081L60.9698 154.526L77.3919 158.62C80.4469 159.386 83.4407 160.188 86.389 160.941L81.167 181.91L93.7717 185.054L98.9432 164.308C102.387 165.243 105.728 166.105 109 166.918L103.846 187.566L116.466 190.711L121.687 169.782C143.206 173.854 159.386 172.212 166.197 152.749C171.685 137.078 165.924 128.039 154.603 122.145C162.848 120.243 169.059 114.82 170.715 103.617L170.711 103.615L170.71 103.616ZM141.878 144.046C137.978 159.716 111.594 151.245 103.04 149.121L109.969 121.342C118.523 123.477 145.954 127.703 141.879 144.046H141.878ZM145.781 103.389C142.223 117.643 120.263 110.401 113.14 108.625L119.422 83.4309C126.546 85.2066 149.487 88.5208 145.782 103.389H145.781Z" fill="white"/>
</svg>
