<svg width="40" height="40" viewBox="0 0 40 40" fill="none" xmlns="http://www.w3.org/2000/svg">
<rect x="0.00390625" width="40" height="40" fill="#005BFF"/>
<path fill-rule="evenodd" clip-rule="evenodd" d="M40.0039 26.399V39.999H7.50391V34.3938V22.999V20.0239C9.98842 16.954 13.8853 14.3922 18.6108 13.0619C21.9801 12.1133 25.3194 11.9191 28.3091 12.3653L37.1706 22.999L39.227 25.4667L40.0039 26.399Z" fill="#F91155"/>
<path fill-rule="evenodd" clip-rule="evenodd" d="M8.60471 23.48C9.4697 26.5524 15.3328 28.6121 21.8775 26.7695C28.4399 24.922 32.3363 20.1147 31.4714 17.0423C30.6064 13.9699 24.7578 11.9109 18.2131 13.7534C11.6684 15.5959 7.73972 20.4075 8.60471 23.48ZM2.88684 25.0897C0.989566 18.3506 7.13411 10.7298 16.6108 8.06187C26.0873 5.39394 35.3254 8.69349 37.2202 15.4238C39.115 22.1542 32.9551 29.7887 23.4786 32.4566C14.002 35.1246 4.78413 31.8289 2.88684 25.0897Z" fill="white"/>
</svg>
