<svg width="5348" height="5347" viewBox="0 0 5348 5347" fill="none" xmlns="http://www.w3.org/2000/svg">
<path d="M3206.26 56.9668V1443.27H2668.86C1989.85 1443.27 1442.91 1990.18 1442.91 2669.16C1442.91 3347.92 1989.85 3894.84 2668.64 3894.84H3206.26V5281.14C4431.99 5045.36 5347 3970.42 5347 2668.94C5347 1377.13 4432.42 302.19 3206.26 56.9668Z" fill="#003791"/>
<path d="M2668.84 4328.31C1754.04 4328.31 1008.77 3583.42 1008.77 2668.89C1008.77 1754.35 1753.82 1009.24 2668.4 1009.24H2772.33V0H2668.62C1197.79 0 0 1197.77 0 2668.67C0 4149.23 1197.79 5347 2668.84 5347H2772.55V4328.75H2668.84V4328.31Z" fill="#FF4B5F"/>
</svg>
