<svg width="436" height="437" viewBox="0 0 436 437" fill="none" xmlns="http://www.w3.org/2000/svg">
<path d="M93.9531 395.502C116.707 301.109 89.6958 297.879 89.6958 252.077C89.6958 236.81 101.734 200.256 103.495 182.493C107.606 141.682 97.4763 152.546 127.277 122.305L129.039 80.3193C144.012 65.9327 151.499 53.0141 169.85 57.565C181.006 90.7422 159.867 80.3193 157.812 119.075C170.29 135.663 178.658 137.278 188.053 158.124C199.944 184.548 191.429 184.255 213.89 206.422C246.92 210.239 266.885 210.386 290.521 186.604C293.016 161.207 278.336 163.409 293.31 140.068C303.586 124.066 313.715 115.405 332.946 121.864C339.259 146.82 310.926 151.958 319.734 179.704C357.756 183.521 366.564 131.113 395.631 128.47C395.631 184.402 337.204 191.742 335.882 237.25C335.001 265.73 360.251 344.122 385.795 360.857C408.256 326.359 432.478 288.778 435.267 247.086C454.792 -37.4157 78.3921 -89.2367 6.89968 159.886C3.22964 172.658 1.02761 185.576 0 198.495V231.525C6.31247 313.44 56.8123 385.373 93.9531 395.502Z" fill="#EF4635"/>
<path d="M204.056 433.671C305.789 445.709 295.073 414.293 274.961 298.467C267.034 252.811 257.785 228.736 203.615 232.993C169.851 273.07 186.88 351.168 188.055 385.373C188.935 412.385 184.384 414.146 204.056 433.671ZM321.057 405.779C338.086 403.723 341.022 400.2 354.821 389.19C357.023 365.849 341.022 328.267 316.066 320.78C304.321 343.388 307.698 383.612 321.057 405.779ZM153.409 425.156C153.409 396.677 156.933 337.809 142.252 317.551C122.728 323.276 128.747 340.011 128.6 375.684C128.453 401.815 123.609 422.514 153.409 425.156Z" fill="#EF4635"/>
</svg>
