<svg width="4141" height="4141" viewBox="0 0 4141 4141" fill="none" xmlns="http://www.w3.org/2000/svg">
<circle cx="2070.5" cy="2070.5" r="2070.5" fill="white"/>
<g clip-path="url(#clip0_314_95)">
<path d="M2075.2 1406.38V451.516L3083 1940.89L2075.2 1406.38Z" fill="#0C8312"/>
<path d="M2075.2 2781.59V3736.45L3083 2247.07L2075.2 2781.59Z" fill="#0C8312"/>
<path d="M2075.2 2184.8V1577.63L3062.22 2096.58L2075.2 2184.8Z" fill="#0C8312"/>
<path d="M2075.2 2625.9V2184.8L3062.22 2096.58L2075.2 2625.9Z" fill="#034C03"/>
<path d="M2075.2 1406.38V451.516L1067.39 1940.89L2075.2 1406.38Z" fill="#3CB93C"/>
<path d="M2075.2 2781.59V3736.45L1067.39 2247.07L2075.2 2781.59Z" fill="#3CB93C"/>
<path d="M2075.2 2184.8V1577.63L1088.17 2096.58L2075.2 2184.8Z" fill="#3CB93C"/>
<path d="M2075.2 2625.9V2184.8L1088.17 2096.58L2075.2 2625.9Z" fill="#166816"/>
</g>
<defs>
<clipPath id="clip0_314_95">
<rect width="2026" height="3321.26" fill="white" transform="translate(1057 410)"/>
</clipPath>
</defs>
</svg>
