<svg width="5347" height="5347" viewBox="0 0 5347 5347" fill="none" xmlns="http://www.w3.org/2000/svg">
<path d="M2673.5 0C1195.07 0 0 1195.07 0 2673.5C0 4151.93 1195.07 5347 2673.5 5347C4151.93 5347 5347 4151.93 5347 2673.5C5347 1195.07 4151.93 0 2673.5 0ZM2303.89 3806.97L2106.77 4386.02C1367.55 4139.61 874.74 3437.36 874.74 2648.86C874.74 1860.36 1367.55 1170.43 2119.09 911.7L2316.21 1490.75C1823.4 1650.92 1503.07 2119.09 1503.07 2636.54C1478.43 3178.63 1811.08 3646.8 2303.89 3806.97V3806.97ZM3215.59 4398.34L3030.79 3806.97C3535.92 3646.8 3868.57 3178.63 3868.57 2648.86C3868.57 2119.09 3535.92 1663.24 3043.11 1503.07L3240.23 911.7C3991.77 1158.11 4496.9 1860.36 4496.9 2648.86C4496.9 3462 3979.45 4164.25 3215.59 4398.34V4398.34Z" fill="#00BEF0"/>
</svg>
