<svg width="5153" height="2709" viewBox="0 0 5153 2709" fill="none" xmlns="http://www.w3.org/2000/svg">
<circle cx="2576.54" cy="1354.5" r="1354.5" fill="white"/>
<path d="M3358.49 1995.53H1468.66L1639.99 1435.4H3529.83L3358.49 1995.53Z" fill="#00B2C3"/>
<path d="M2274.83 1225.42V875.023H2428.9V990.964H2499.76V875.023H2653.57V1225.42H2499.76V1109.22H2428.9V1225.42H2274.83V1225.42ZM3036.95 1030.38L3095.43 875.023H2945.23L2898.34 990.964H2871.02V875.023H2716.95V1225.42H2871.02V1109.22H2907.61L2954.5 1225.42H3108.32L3036.95 1030.38V1030.38ZM3381.42 913.67C3362.69 913.048 3344.04 916.426 3326.7 923.579C3309.38 930.731 3293.77 941.495 3280.94 955.151C3282.02 939.343 3287.38 924.127 3296.45 911.143C3305.55 898.158 3317.99 887.897 3332.47 881.464C3384 859.564 3443.77 874.765 3487.06 837.922V710.387C3453.77 722.164 3419.14 729.78 3384 733.06C3331.98 738.52 3281.79 755.224 3236.88 782.012C3174.27 821.432 3129.7 885.071 3129.7 1017.24C3129.7 1188.32 3228.64 1236.5 3330.67 1236.5C3432.69 1236.5 3520.81 1184.97 3520.81 1073.41C3520.81 965.714 3456.66 913.928 3380.91 913.928L3381.42 913.67V913.67ZM3325.51 1118.5C3288.41 1118.5 3279.65 1089.38 3279.65 1066.97C3279.65 1044.55 3288.41 1015.44 3325.51 1015.44C3362.61 1015.44 3370.6 1043.78 3370.6 1066.97C3370.6 1090.16 3361.84 1118.5 3325.51 1118.5ZM2221.5 1050.22C2221.5 964.169 2182.85 882.752 2094.22 866.263L2087.01 864.975C2081.85 864.975 2076.44 863.686 2071.03 863.429H2050.16C2024.57 864.609 1999.78 872.809 1978.54 887.132C1966.56 895.277 1955.87 905.178 1946.85 916.504L1932.42 875.023H1811.32V1364.55H1965.91V1204.04C1977.82 1214.5 1991.65 1222.54 2006.62 1227.74C2024.15 1234.29 2042.79 1237.35 2061.5 1236.76C2173.32 1236.76 2222.01 1146.32 2222.01 1049.96L2221.5 1050.22V1050.22ZM2009.71 1113.6C2000.54 1113.73 1991.51 1111.41 1983.54 1106.88C1975.57 1102.35 1968.95 1095.78 1964.37 1087.84V1010.54C1969.1 1002.74 1975.76 996.284 1983.69 991.775C1991.63 987.267 2000.58 984.858 2009.71 984.78C2046.81 984.78 2063.04 1016.99 2063.04 1048.16C2063.29 1052.02 2063.29 1055.9 2063.04 1059.76C2062.66 1073.3 2057.1 1086.18 2047.52 1095.76C2037.94 1105.34 2025.06 1110.9 2011.52 1111.28" fill="#2C384A"/>
</svg>
