<svg width="4587" height="4587" viewBox="0 0 4587 4587" fill="none" xmlns="http://www.w3.org/2000/svg">
<circle cx="2293.5" cy="2293.5" r="2293.5" fill="#0AC18E"/>
<path d="M3460.71 2129.57C3320.47 1941.53 3034.81 1934.61 3034.81 1934.61C3034.81 1934.61 3250.21 1704.24 3086.35 1380.56C2981.24 1173.23 2731.86 1046.52 2366.43 1147.02L2222.45 677.919L1926.7 767.766L2070.69 1235.71L1825.34 1310.87L1681.35 842.638L1385.03 933.924L1529.02 1402.16L1051.57 1547.87L1141.12 1843.04L1430.82 1754.35L1868.53 3183.82L1578.84 3273.09L1674.73 3587.56L2151.32 3443.57L2295.3 3912.38L2591.05 3820.23L2447.06 3351.42L2692.41 3276.55L2836.4 3745.36L3132.72 3654.94L2988.73 3185.84L3057.27 3164.82C3632.63 2978.79 3704.05 2453.82 3460.71 2129.57ZM1922.1 1604.6C1922.1 1604.6 2043.04 1566.88 2214.96 1515.04C2379.1 1465.8 2563.69 1523.68 2618.12 1684.37C2672.54 1845.06 2580.97 2025.33 2402.72 2082.34C2239.44 2134.75 2096.89 2175.93 2096.89 2175.93L1922.1 1604.6ZM2750.58 2914C2582.41 2969.29 2358.94 3033.79 2358.94 3033.79L2177.81 2440.58C2177.81 2440.58 2379.39 2382.98 2554.48 2325.39C2764.69 2257.14 2950.14 2307.82 3009.47 2492.99C3068.79 2678.15 2978.37 2839.41 2750.58 2914Z" fill="white"/>
</svg>
