<svg width="459" height="466" viewBox="0 0 459 466" fill="none" xmlns="http://www.w3.org/2000/svg">
<path d="M230.934 459.548C356.495 459.548 458.283 357.798 458.283 232.283C458.283 106.768 356.495 5.01855 230.934 5.01855C105.373 5.01855 3.58594 106.768 3.58594 232.283C3.58594 357.798 105.373 459.548 230.934 459.548Z" fill="#F8BF1A"/>
<path d="M104.711 359.896V299.674H139.853V162.025H104.711V103.954H251.734C261.775 103.954 271.816 106.822 281.139 110.406C299.786 117.576 316.281 128.329 329.191 144.102C340.666 157.723 348.555 173.496 352.858 191.419C360.03 221.529 360.03 252.357 351.423 282.468C339.948 321.899 315.564 348.425 273.967 357.745C266.795 359.179 258.906 359.896 251.734 360.613H110.448C108.297 359.896 106.863 359.896 104.711 359.896ZM211.572 299.674C219.461 299.674 227.35 300.391 235.239 299.674C245.28 298.957 254.603 295.373 261.058 286.769C266.795 279.6 271.816 271.714 274.684 263.111C280.422 243.754 278.27 224.397 273.967 205.04C271.816 193.569 266.078 182.816 258.906 174.213C254.603 169.194 248.866 163.459 242.411 162.742C232.37 160.591 221.612 162.025 211.572 162.025V299.674Z" fill="white"/>
</svg>
