<svg width="4389" height="4007" viewBox="0 0 4389 4007" fill="none" xmlns="http://www.w3.org/2000/svg">
<g clip-path="url(#clip0_294_93)">
<path d="M3518.87 287.649L422.763 653.023C288.689 668.845 192.826 790.361 208.649 924.435L444.542 2923.35C460.364 3057.43 581.88 3153.29 715.954 3137.47L3812.06 2772.09C3946.14 2756.27 4042 2634.76 4026.18 2500.68L3790.28 501.764C3774.46 367.689 3652.95 271.827 3518.87 287.649Z" fill="#85C534"/>
<path d="M3944.3 752.629H826.701C691.697 752.629 582.254 862.072 582.254 997.076V3009.86C582.254 3144.87 691.697 3254.31 826.701 3254.31H3944.3C4079.3 3254.31 4188.74 3144.87 4188.74 3009.86V997.076C4188.74 862.072 4079.3 752.629 3944.3 752.629Z" fill="#467010"/>
<path d="M1417.18 1692.38H1026.66C933.742 1692.38 858.414 1767.71 858.414 1860.63V2133.71C858.414 2226.63 933.742 2301.96 1026.66 2301.96H1417.18C1510.1 2301.96 1585.43 2226.63 1585.43 2133.71V1860.63C1585.43 1767.71 1510.1 1692.38 1417.18 1692.38Z" fill="#FFCC00" fill-opacity="0.85"/>
<path d="M3615.55 1638.43C3781 1638.43 3915.13 1504.3 3915.13 1338.84C3915.13 1173.39 3781 1039.26 3615.55 1039.26C3450.09 1039.26 3315.96 1173.39 3315.96 1338.84C3315.96 1504.3 3450.09 1638.43 3615.55 1638.43Z" fill="#2C4B7D"/>
<path d="M901.302 2500.74C879.176 2500.74 861.191 2482.81 861.191 2460.63C861.191 2438.5 879.176 2420.57 901.302 2420.57H1510.82C1532.95 2420.57 1550.93 2438.5 1550.93 2460.63C1550.93 2482.81 1532.95 2500.74 1510.82 2500.74H901.302ZM1621.98 2500.74C1599.8 2500.74 1581.87 2482.81 1581.87 2460.63C1581.87 2438.5 1599.8 2420.57 1621.98 2420.57H2282.32C2304.45 2420.57 2322.38 2438.5 2322.38 2460.63C2322.38 2482.81 2304.45 2500.74 2282.32 2500.74H1621.98ZM2426.79 2500.74C2404.61 2500.74 2386.68 2482.81 2386.68 2460.63C2386.68 2438.5 2404.61 2420.57 2426.79 2420.57H3001.41C3023.53 2420.57 3041.46 2438.5 3041.46 2460.63C3041.46 2482.81 3023.53 2500.74 3001.41 2500.74H2426.79ZM3147.42 2500.74C3125.29 2500.74 3107.36 2482.81 3107.36 2460.63C3107.36 2438.5 3125.29 2420.57 3147.42 2420.57H3814.14C3836.27 2420.57 3854.2 2438.5 3854.2 2460.63C3854.2 2482.81 3836.27 2500.74 3814.14 2500.74H3147.42ZM901.302 2678.51C879.176 2678.51 861.191 2660.58 861.191 2638.46C861.191 2616.33 879.176 2598.35 901.302 2598.35H1822.77C1844.9 2598.35 1862.82 2616.33 1862.82 2638.46C1862.82 2660.58 1844.9 2678.51 1822.77 2678.51H901.302ZM901.302 2884.86C879.176 2884.86 861.191 2866.93 861.191 2844.81C861.191 2822.68 879.176 2804.7 901.302 2804.7H1351.33C1373.45 2804.7 1391.38 2822.68 1391.38 2844.81C1391.38 2866.93 1373.45 2884.86 1351.33 2884.86H901.302ZM1948.55 2678.51C1926.42 2678.51 1908.49 2660.58 1908.49 2638.46C1908.49 2616.33 1926.42 2598.35 1948.55 2598.35H2330.36C2352.49 2598.35 2370.41 2616.33 2370.41 2638.46C2370.41 2660.58 2352.49 2678.51 2330.36 2678.51H1948.55Z" fill="#CCCCCC"/>
<path d="M3215.87 1638.43C3381.32 1638.43 3515.45 1504.3 3515.45 1338.84C3515.45 1173.39 3381.32 1039.26 3215.87 1039.26C3050.41 1039.26 2916.28 1173.39 2916.28 1338.84C2916.28 1504.3 3050.41 1638.43 3215.87 1638.43Z" fill="#B54747"/>
</g>
<defs>
<clipPath id="clip0_294_93">
<rect width="4389" height="4007" fill="white"/>
</clipPath>
</defs>
</svg>
