<svg width="2022" height="2022" viewBox="0 0 2022 2022" fill="none" xmlns="http://www.w3.org/2000/svg">
<path d="M1488.3 1010.89L1693.38 805.798L1898.47 1010.89L1693.38 1215.96L1488.3 1010.89ZM123.658 1011L328.733 805.925L533.808 1011L328.733 1216.07L123.658 1011ZM1011 1488.38L671.052 1148.43L466.008 1353.48L1011 1898.47L1555.99 1353.48L1350.95 1148.43L1011 1488.38ZM1011 533.618L1350.95 873.567L1555.99 668.523L1011 123.531L466.008 668.523L671.052 873.567L1011 533.618Z" fill="#F0B90B"/>
<path d="M808.373 1011L1010.89 808.484L1213.4 1011L1010.89 1213.52L808.373 1011Z" fill="#F0B90B"/>
</svg>
