<svg width="2702" height="2702" viewBox="0 0 2702 2702" fill="none" xmlns="http://www.w3.org/2000/svg">
<circle cx="1351" cy="1351" r="1351" fill="#427EF3"/>
<path d="M1748.82 1551.84C1751.26 1384.74 1579.08 1267.25 1356.89 1244.07C1226.39 1230.86 1155.44 1193.66 1155.44 1107.47C1155.44 1025.14 1239.19 963.952 1332.5 969.035C1502.04 978.589 1526.63 1083.48 1526.63 1147.52C1526.63 1147.52 1711.21 1149.55 1711.21 1147.52C1711.21 991.599 1621.36 854.384 1437.8 813.931V629.352H1254.85V807.426C1065.19 837.512 960.089 990.379 958.26 1120.48C955.617 1292.66 1099.54 1388.4 1338.4 1422.96C1486.79 1443.29 1552.86 1500.01 1551.43 1575.22C1550.21 1656.53 1497.16 1734.39 1344.29 1734.39C1199.15 1734.39 1139.59 1644.74 1139.59 1550.22H940.371C940.371 1719.75 1031.03 1844.16 1253.83 1873.03V2050.69H1436.78V1874.86C1695.36 1842.13 1747.19 1647.79 1748.82 1551.84Z" fill="white"/>
<path d="M464.897 1351C464.901 1165.38 523.2 984.441 631.563 833.732C739.927 683.022 892.883 570.148 1068.85 511.042V316.095C841.824 378.02 641.463 512.877 498.631 699.887C355.8 886.897 278.424 1115.68 278.424 1351C278.424 1586.32 355.8 1815.1 498.631 2002.11C641.463 2189.12 841.824 2323.98 1068.85 2385.9V2190.96C892.883 2131.85 739.927 2018.98 631.563 1868.27C523.2 1717.56 464.901 1536.62 464.897 1351ZM1622.79 313.046V507.383C1801.2 564.995 1956.76 677.691 2067.1 829.271C2177.44 980.852 2236.88 1163.51 2236.88 1351C2236.88 1538.49 2177.44 1721.15 2067.1 1872.73C1956.76 2024.31 1801.2 2137 1622.79 2194.62V2388.95C1852.18 2328.74 2055.16 2194.22 2200.02 2006.44C2344.87 1818.65 2423.44 1588.16 2423.44 1351C2423.44 1113.84 2344.87 883.352 2200.02 695.564C2055.16 507.776 1852.18 373.264 1622.79 313.046Z" fill="white"/>
</svg>
