<svg width="2591" height="2591" viewBox="0 0 2591 2591" fill="none" xmlns="http://www.w3.org/2000/svg">
<g clip-path="url(#clip0_403_137)">
<path d="M1295.5 2591C2010.98 2591 2591 2010.98 2591 1295.5C2591 580.015 2010.98 0 1295.5 0C580.015 0 0 580.015 0 1295.5C0 2010.98 580.015 2591 1295.5 2591Z" fill="#8247E5"/>
<path d="M1724.3 1018.32C1693.23 1000.25 1652.83 1000.25 1618.66 1018.32L1376.29 1156.91L1211.6 1247.3L969.233 1385.88C938.159 1403.96 897.766 1403.96 863.584 1385.88L670.932 1277.42C639.86 1259.35 618.11 1226.21 618.11 1190.05V976.144C618.11 939.991 636.753 906.85 670.932 888.773L860.477 783.324C891.549 765.248 931.945 765.248 966.126 783.324L1155.67 888.773C1186.74 906.85 1208.49 939.991 1208.49 976.144V1114.73L1373.18 1021.33V882.746C1373.18 846.594 1354.54 813.452 1320.36 795.376L969.233 596.532C938.159 578.456 897.766 578.456 863.584 596.532L506.246 795.376C472.065 813.452 453.422 846.594 453.422 882.746V1283.45C453.422 1319.6 472.065 1352.74 506.246 1370.82L863.584 1569.66C894.659 1587.74 935.052 1587.74 969.233 1569.66L1211.6 1434.09L1376.29 1340.69L1618.66 1205.12C1649.73 1187.04 1690.12 1187.04 1724.3 1205.12L1913.85 1310.56C1944.92 1328.64 1966.67 1361.78 1966.67 1397.94V1611.84C1966.67 1648 1948.03 1681.14 1913.85 1699.21L1724.3 1807.68C1693.23 1825.75 1652.83 1825.75 1618.66 1807.68L1429.11 1702.23C1398.04 1684.15 1376.29 1651.01 1376.29 1614.86V1476.27L1211.6 1569.66V1708.25C1211.6 1744.41 1230.24 1777.55 1264.43 1795.62L1621.76 1994.47C1652.83 2012.54 1693.23 2012.54 1727.41 1994.47L2084.75 1795.62C2115.82 1777.55 2137.57 1744.41 2137.57 1708.25V1307.55C2137.57 1271.4 2118.93 1238.26 2084.75 1220.18L1724.3 1018.32Z" fill="white"/>
</g>
<defs>
<clipPath id="clip0_403_137">
<rect width="2591" height="2591" fill="white"/>
</clipPath>
</defs>
</svg>
