<svg width="4141" height="4141" viewBox="0 0 4141 4141" fill="none" xmlns="http://www.w3.org/2000/svg">
<circle cx="2070.5" cy="2070.5" r="2070.5" fill="white"/>
<g clip-path="url(#clip0_142_28)">
<path d="M2069.69 420L2047.58 495.18V2676.73L2069.69 2698.8L3082.24 2100.23L2069.69 420Z" fill="#343434"/>
<path d="M2069.7 420L1057.15 2100.23L2069.7 2698.81V1639.96V420Z" fill="#8C8C8C"/>
<path d="M2069.69 2890.54L2057.23 2905.74V3682.85L2069.69 3719.26L3082.85 2292.27L2069.69 2890.54Z" fill="#3C3C3B"/>
<path d="M2069.7 3719.25V2890.53L1057.15 2292.26L2069.7 3719.25Z" fill="#8C8C8C"/>
<path d="M2069.69 2698.8L3082.22 2100.24L2069.69 1639.96V2698.8Z" fill="#141414"/>
<path d="M1057.15 2100.23L2069.68 2698.8V1639.96L1057.15 2100.23Z" fill="#393939"/>
</g>
<defs>
<clipPath id="clip0_142_28">
<rect width="2026" height="3300" fill="white" transform="translate(1057 420)"/>
</clipPath>
</defs>
</svg>
