<svg width="560" height="560" viewBox="0 0 560 560" fill="none" xmlns="http://www.w3.org/2000/svg">
<g clip-path="url(#clip0_403_130)">
<path d="M280.439 315.875C219.189 254.625 158.814 194.688 98.0011 133.438V368.375C95.8136 368.375 94.0636 368.813 92.7511 368.813H18.8136C15.3136 368.813 13.5636 367.938 12.6886 364.438C2.62608 330.75 -1.74892 296.625 0.876076 261.188C5.25108 201.688 25.8136 148.313 64.3136 102.375C106.751 51.1877 160.564 18.3752 226.189 5.68769C312.814 -10.9373 391.564 9.18769 459.814 65.6252C511.876 108.5 543.376 164.063 555.626 230.563C563.939 275.625 560.439 319.813 547.314 363.563C546.001 367.063 544.689 368.375 540.751 368.375H462.001V133.875C401.626 195.125 341.251 255.063 280.439 315.875Z" fill="#F26722"/>
<path d="M41.125 425.25H158.375V277.375L279.562 398.562C320.25 357.875 360.5 318.063 401.187 277.375V424.812H519.312C496.125 462 467.25 492.188 430.937 515.375C395.062 538.563 355.687 553 313.25 557.812C184.187 573.125 84 500.062 41.125 425.25Z" fill="#4C4C4D"/>
</g>
<defs>
<clipPath id="clip0_403_130">
<rect width="560" height="560" fill="white"/>
</clipPath>
</defs>
</svg>
