<svg width="5347" height="5347" viewBox="0 0 5347 5347" fill="none" xmlns="http://www.w3.org/2000/svg">
<circle cx="2673.5" cy="2673.5" r="2673.5" fill="#FFE600"/>
<path d="M4553 3842.36C4553 4299.2 4299.2 4553 3842.36 4553H1503.64C1046.8 4553 793 4299.2 793 3842.36V1503.64C793 1046.8 1046.8 793 1503.64 793H3843.3C4299.2 793 4553 1046.8 4553 1503.64V3842.36Z" fill="#FFE600"/>
<path d="M3210.63 2489.67V2130.59L3340.35 2000.87V2312.01L3453.15 2424.81L3907.17 1970.79L4019.03 2082.65C4018.09 1998.05 4001.17 1752.71 3793.43 1548.73C3569.71 1332.53 3327.19 1430.29 3244.47 1513.01L2791.39 1966.09L2907.01 2081.71L2672.95 2317.65L2438.89 2083.59L2554.51 1967.97L2101.43 1514.89C2018.71 1432.17 1776.19 1334.41 1552.47 1550.61C1344.73 1754.59 1327.81 1999.93 1326.87 2084.53L1438.73 1972.67L1892.75 2426.69L2005.55 2313.89V2002.75L2135.27 2132.47V2491.55L2317.63 2672.97L1418.99 3571.61L1774.31 3925.99L2672.95 3028.29L3571.59 3926.93L3926.91 3572.55L3028.27 2672.97L3210.63 2489.67Z" fill="#2B2D34"/>
</svg>
