<svg width="5347" height="5347" viewBox="0 0 5347 5347" fill="none" xmlns="http://www.w3.org/2000/svg">
<circle cx="2673.5" cy="2673.5" r="2673.5" fill="#FFE600"/>
<path d="M4486.79 2553.01L4536 2398.49L4375.96 2403.55C4301 2400.79 4228.8 2375.5 4168.1 2330.89H4189.71C4287.21 2330.43 4376.42 2274.79 4419.65 2187.41L4490.01 2037.03C4434.83 2037.49 4379.64 2034.27 4324.91 2027.37C4272.49 2014.96 4225.59 1986.44 4190.17 1945.98C4142.34 1894.93 4076.12 1865.96 4006.22 1865.5C3979.09 1865.5 3951.96 1870.09 3925.74 1878.37C3929.42 1865.96 3932.64 1853.54 3934.94 1840.66C3945.98 1750.99 3920.69 1660.39 3865.04 1589.11L3743.64 1439.65L3669.14 1614.4C3657.18 1639.24 3639.24 1660.85 3616.25 1676.49C3603.37 1613.94 3573.02 1556.92 3527.95 1511.85C3452.53 1434.59 3349.06 1391.36 3240.99 1392.28C3222.14 1392.28 3203.28 1393.66 3184.89 1396.42L3039.57 1424.93C3051.98 1376.19 3071.75 1329.74 3098.43 1286.97L3178.44 1162.35L2977.02 1181.2L2912.64 1043.24L2788.47 1110.84L2673.5 997.25L2558.53 1110.84L2434.36 1046.46L2369.98 1181.2L2168.56 1158.21L2248.57 1283.29C2275.25 1326.06 2295.02 1372.51 2307.43 1421.26L2169.48 1394.12H2164.88C2145.57 1391.36 2126.25 1389.98 2106.93 1389.98C1998.87 1389.07 1895.38 1432.29 1819.97 1509.55C1774.44 1555.08 1743.17 1613.03 1730.75 1676.49C1708.68 1661.31 1690.74 1640.62 1678.79 1616.24L1603.83 1440.11L1481.5 1590.03C1426.78 1661.31 1402.4 1751.45 1412.98 1840.66C1415.28 1853.54 1418.5 1865.96 1422.18 1878.37C1395.96 1870.09 1368.83 1865.5 1341.7 1865.5C1271.8 1865.96 1205.57 1894.93 1157.75 1945.98C1122.8 1985.99 1076.35 2014.5 1024.38 2027.37C969.198 2035.65 913.093 2038.87 856.988 2037.03L925.509 2189.71C968.738 2277.09 1057.95 2332.73 1155.45 2333.19H1177.06C1117.28 2376.88 1046 2402.17 971.957 2405.39L811 2398.49L860.207 2553.01C896.997 2673.96 1001.39 2762.71 1126.93 2778.82C1114.06 2860.21 1062.55 2930.57 988.972 2967.37L865.725 3017.49L931.948 3132.91C986.673 3217.99 1080.95 3268.58 1181.66 3267.66C1207.87 3267.66 1234.09 3264.9 1259.84 3259.39C1266.28 3287.44 1274.56 3315.49 1283.75 3342.62C1306.75 3403.32 1308.13 3469.54 1288.35 3531.17L1228.57 3656.71L1362.39 3692.13C1392.28 3699.94 1423.56 3703.62 1454.37 3703.62C1476.44 3703.62 1498.06 3701.32 1519.67 3696.26C1535.31 3692.59 1550.94 3687.99 1565.66 3682.01C1582.67 3712.82 1604.29 3741.34 1628.66 3766.63C1714.2 3854.46 1835.61 3899.07 1989.66 3899.07H2099.57L1872.86 3993.34L2044.85 4078.42C2114.29 4112.46 2185.12 4143.26 2257.32 4170.4L2236.61 4230.18L2295.94 4257.31C2394.36 4295.94 2498.75 4317.56 2604.52 4321.24H2745.7C2851.01 4317.56 2954.94 4295.49 3052.9 4256.86L3110.39 4230.18L3090.15 4170.4C3163.27 4142.34 3235.01 4110.61 3304.91 4075.2L3473.69 3993.34L3247.43 3901.37H3357.79C3511.86 3901.37 3633.72 3855.39 3718.8 3768.93C3743.64 3743.64 3764.79 3715.12 3781.8 3684.31C3796.52 3690.29 3812.16 3694.89 3827.79 3698.56C3849.41 3703.62 3871.02 3705.92 3893.09 3705.92C3923.91 3705.92 3955.18 3701.79 3985.07 3694.43L4119.35 3659.01L4060.95 3535.77C4038.87 3473.23 4039.79 3404.71 4063.25 3342.62C4072.91 3314.56 4080.72 3286.06 4087.16 3257.54C4112.91 3263.07 4139.59 3265.82 4165.8 3265.82C4267.43 3266.74 4362.16 3214.31 4415.97 3127.86L4481.27 3013.81L4359.86 2964.14C4286.29 2927.35 4234.78 2856.99 4221.91 2775.59C4347.45 2759.04 4451.84 2670.74 4488.64 2549.34L4486.79 2553.01V2553.01Z" fill="white"/>
<path d="M3226.28 3041.4H2122.57V3455.29C2122.57 3625.44 2245.36 3731.21 2427.01 3731.21C2578.77 3731.21 2618.78 3737.19 2674.89 3793.29C2710.29 3755.13 2760.42 3733.51 2812.85 3734.43V3727.99L2847.8 3620.38L2788.47 3555.53C2764.56 3562.9 2739.73 3565.66 2714.89 3564.28C2677.64 3563.81 2640.85 3560.13 2604.52 3552.78H2593.03C2587.96 3552.78 2587.96 3552.78 2586.59 3555.53L2579.69 3567.04L2567.27 3587.73L2543.36 3582.21L2437.13 3557.38L2422.42 3581.29V3584.05L2435.29 3598.31L2429.77 3616.7C2420.12 3639.23 2406.31 3659.47 2388.84 3676.95L2362.17 3705.46L2337.79 3675.11L2319.86 3652.57C2300.54 3627.28 2295.94 3594.17 2306.99 3564.28L2277.09 3576.69L2263.76 3547.26L2256.4 3526.56C2237.54 3482.88 2251.8 3432.29 2289.96 3404.7L2375.51 3358.71L2456.9 3374.81C2456.9 3366.99 2461.97 3338.93 2464.27 3332.03H2459.67L2413.67 3349.51L2367.69 3318.24C2358.49 3309.04 2358.03 3293.87 2367.69 3284.21L2411.37 3217.99L2300.54 3080.03L2466.56 3145.33L2478.06 3131.54L2501.05 3103.94L2527.27 3128.77C2534.17 3135.67 2538.76 3143.95 2541.06 3153.61C2587.05 3172 2672.12 3225.81 2679.02 3313.19L2652.81 3323.76C2656.03 3328.36 2660.17 3332.03 2665.23 3334.33L2786.64 3346.29L2797.67 3343.08C2818.37 3335.26 2840.44 3331.12 2862.52 3330.66C2884.59 3330.66 2906.2 3335.72 2925.98 3345.38C2934.72 3342.16 2944.37 3340.31 2953.57 3339.86H2959.55C3024.39 3339.86 3057.04 3388.61 3082.79 3427.24L3096.13 3446.55C3118.67 3478.74 3148.56 3525.65 3149.94 3527.48L3163.27 3548.18L3146.71 3567.49C3131.54 3587.73 3107.63 3599.23 3082.34 3599.23C3074.98 3599.68 3067.62 3599.68 3060.26 3599.23C3053.82 3597.85 3047.39 3596.01 3040.94 3593.25C3040.94 3599.68 3040.94 3607.51 3037.26 3613.94L3018.42 3722.47C3143.5 3697.18 3231.79 3584.97 3226.74 3457.13L3226.28 3041.4V3041.4ZM2121.19 3007.83H2980.7C2945.75 2971.04 2933.79 2918.16 2949.43 2869.86C2937.94 2864.35 2926.89 2856.99 2917.24 2848.72C2883.66 2873.54 2779.28 2948.04 2754.44 2966.9L2748.92 2970.58L2411.37 2910.79H2404.48C2393.44 2911.26 2382.4 2911.26 2371.36 2910.79C2368.14 2925.97 2354.81 2936.55 2339.64 2936.55H2334.11C2316.18 2933.33 2303.77 2916.31 2306.52 2898.38V2891.02C2262.84 2859.75 2242.14 2805.49 2253.64 2753.06V2747.08L2258.69 2743.4C2258.69 2743.4 2265.14 2738.8 2273.87 2733.74L2249.5 2730.06C2240.3 2728.22 2234.32 2719.95 2235.7 2710.75C2237.08 2701.55 2245.36 2695.57 2254.56 2696.95H2255.01L2313.42 2706.15L2318.94 2500.59L2405.86 2408.61L2460.12 2522.66L2403.1 2720.41L2454.6 2728.69C2463.8 2730.52 2469.78 2738.8 2468.4 2748C2467.02 2756.28 2460.12 2761.79 2451.84 2761.79H2449.09L2407.24 2754.9V2758.11C2411.84 2766.39 2418.74 2772.84 2427.47 2776.97L2684.54 2781.11L2750.3 2716.27C2700.18 2698.79 2664.31 2654.64 2658.33 2601.76C2626.14 2589.34 2599.92 2565.43 2585.21 2534.61C2572.79 2505.64 2570.49 2472.99 2579.23 2442.64C2538.76 2426.54 2501.97 2402.17 2472.08 2370.9H2090.38C2108.78 2415.97 2119.35 2463.79 2121.19 2512.09V3007.83V3007.83Z" fill="#FCE527"/>
<path d="M2473.92 3222.14C2468.4 3222.14 2463.34 3226.27 2462.88 3231.79V3232.25C2462.42 3238.23 2467.02 3243.75 2473 3244.21H2473.46C2479.89 3244.21 2484.49 3239.15 2484.49 3233.17C2484.49 3226.73 2479.89 3222.14 2473.92 3222.14V3222.14Z" fill="#222220"/>
<path d="M2473.46 3221.68C2473.92 3221.68 2473.92 3222.14 2473.92 3222.14C2474.38 3222.14 2474.38 3221.68 2474.84 3221.68H2473.46V3221.68ZM3224.88 3975.87L3161.43 3951.5L3178.9 3885.74L3198.21 3813.99C3111.3 3858.61 3020.24 3894.47 2926.43 3921.15C2880.44 3934.02 2847.33 3940 2847.33 3940V3986.45C2790.76 3995.65 2733.74 4000.71 2676.26 4001.16H2671.2C2613.71 4000.71 2556.68 3995.65 2500.12 3986.45V3940.47C2500.12 3940.47 2466.55 3934.02 2420.56 3921.15C2326.75 3894.47 2235.69 3858.61 2148.78 3813.99L2167.64 3885.74L2185.56 3951.5L2121.64 3975.87L2052.66 4002.09C2147.4 4051.29 2246.27 4092.22 2348.36 4124.41L2323.99 4190.64C2434.82 4232.94 2553.47 4253.64 2672.11 4250.88H2674.88C2793.52 4253.64 2912.17 4232.94 3023 4190.64L2999.08 4124.41C3100.72 4092.22 3199.59 4051.29 3294.33 4002.09L3224.88 3975.87ZM2129.46 4006.22L2232.47 3971.74L2201.66 3870.57C2269.26 3904.13 2339.16 3932.19 2411.36 3954.26L2360.78 4092.22C2281.22 4071.06 2203.5 4042.09 2129.46 4006.22ZM2676.26 4218.23L2673.96 4216.39C2572.79 4215.93 2472.07 4202.13 2374.58 4175.46L2436.66 4007.14C2513.92 4026.46 2593.48 4037.04 2673.49 4037.49H2678.56C2758.57 4036.58 2838.13 4026.46 2915.39 4007.14L2977.47 4175.46C2879.52 4203.05 2777.88 4217.31 2676.26 4218.23V4218.23ZM2989.89 4094.98V4093.6L2939.31 3955.64C3011.51 3933.56 3081.41 3905.52 3149.01 3871.94L3118.2 3973.11L3222.58 4008.06C3148.08 4044.39 3069.91 4073.83 2989.89 4094.98V4094.98ZM2673.5 1350.9C2777.43 1348.14 2879.52 1379.41 2964.13 1439.65C2977.48 1371.59 3002.77 1306.29 3039.1 1246.97L2934.71 1258.92L2880.44 1142.57L2775.13 1196.84L2673.5 1096.13L2571.86 1196.84L2466.55 1142.57L2412.28 1258.92L2307.89 1246.97C2344.23 1306.29 2369.52 1371.59 2382.86 1439.65C2467.47 1379.41 2569.56 1348.14 2673.5 1350.9ZM2407.68 1299.39L2436.67 1302.61L2449.08 1276.4L2485.41 1198.22L2553.01 1233.17L2579.22 1246.51L2600.38 1227.19L2673.5 1153.15L2746.61 1227.19L2767.77 1247.89L2793.99 1234.55L2861.13 1199.6L2897.91 1277.78L2910.34 1303.99L2939.31 1300.77L2966.9 1297.55C2955.86 1322.85 2946.21 1349.06 2938.39 1375.73C2772.37 1290.65 2575.09 1290.65 2409.07 1375.73C2401.25 1349.06 2391.59 1322.85 2380.56 1297.55L2407.68 1299.39V1299.39ZM4037.5 2300.08L4025.08 2284.91C3939.54 2175.91 3858.14 2072.44 3712.83 2025.07C3718.81 2020.01 3724.79 2015.41 3731.22 2011.28C3800.2 1972.18 3848.95 1905.05 3864.59 1827.33C3872.4 1756.96 3852.63 1686.61 3809.4 1630.5L3763.42 1573.02L3734.45 1641.54C3734.45 1645.68 3683.39 1755.59 3580.38 1755.59H3550.03C3555.55 1683.39 3529.34 1612.11 3478.29 1560.6C3416.21 1497.14 3330.67 1461.73 3241.92 1462.19C3225.36 1462.19 3208.8 1463.57 3192.71 1465.86L3122.34 1479.66L3166.04 1537.15C3200.07 1583.13 3230.87 1662.69 3194.54 1705.46C3177.07 1720.64 3157.29 1732.59 3135.68 1740.87C3089.69 1762.49 3023.47 1793.3 3023.47 1870.56C3023.47 1920.69 3062.56 1973.11 3132.92 2017.71C3340.33 2149.24 3468.63 2284.91 3524.28 2437.59C3610.27 2670.28 3498.07 2802.73 3389.07 2872.63L3340.33 2903.9L3383.09 2942.98C3421.27 2975.64 3468.17 2995.87 3518.3 3000.94H3560.14C3602.92 3000.94 3645.22 2994.96 3686.15 2982.54C3676.04 3000.47 3663.62 3017.48 3650.29 3033.12C3588.2 3105.32 3496.22 3144.87 3401.03 3139.81H3360.1L3356.88 3180.74C3356.42 3238.23 3381.72 3292.49 3425.4 3329.74C3436.9 3339.86 3449.78 3348.14 3463.57 3354.58C3395.51 3420.8 3356.88 3511.39 3355.5 3606.59C3355.5 3658.56 3343.54 3710.06 3321.01 3756.97L3275.02 3825.95H3356.88C3492.09 3825.95 3595.56 3788.7 3667.3 3714.67C3704.55 3675.57 3732.15 3628.21 3748.24 3576.7C3774.91 3599.23 3806.18 3614.87 3840.22 3622.69C3856.31 3626.36 3872.87 3628.21 3889.42 3628.21C3914.25 3628.21 3939.09 3624.99 3963 3619.46L4015.42 3605.67L3992.43 3556.92C3963.46 3479.21 3963.46 3393.21 3992.43 3315.48C4009.44 3264.9 4021.4 3212.48 4027.85 3159.13C4069.23 3180.29 4115.22 3190.86 4161.67 3190.4C4238.01 3191.32 4309.29 3153.62 4350.67 3089.68L4375.97 3043.7L4329.98 3024.39C4175.92 2960.46 4141.9 2788.47 4135 2695.57C4150.17 2698.79 4165.34 2700.64 4180.98 2701.09L4193.86 2709.83C4361.25 2709.83 4417.36 2539.21 4419.66 2531.86L4438.51 2471.61H4375.51C4243.07 2467.01 4119.36 2404.47 4037.5 2300.08V2300.08ZM4194.32 2663.39H4187.88C4154.31 2663.84 4121.19 2654.64 4092.69 2637.17C4092.69 2637.17 4068.31 2969.67 4316.19 3072.67V3074.05C4283.54 3123.72 4227.43 3153.15 4168.1 3152.23C4100.97 3156.37 4036.12 3127.86 3993.81 3075.89C3995.2 3154.07 3982.32 3232.25 3956.1 3305.83C3922.53 3394.59 3922.53 3493 3956.1 3581.76C3935.41 3586.81 3914.72 3589.57 3893.56 3589.57C3880.68 3589.57 3867.34 3588.19 3854.93 3584.98C3793.77 3570.26 3745.02 3525.19 3725.24 3465.86C3725.24 3465.86 3734.9 3785.02 3362.86 3785.02H3360.1C3388.15 3731.68 3402.87 3672.35 3402.41 3612.11C3418.51 3376.19 3578.55 3342.62 3578.55 3342.62C3534.39 3337.1 3492.54 3321.46 3455.76 3296.64C3422.19 3268.58 3402.87 3227.19 3401.95 3183.51C3509.56 3188.1 3613.49 3143.49 3683.85 3061.64C3726.17 3013.35 3754.22 2954.49 3766.17 2891.48C3706.85 2936.09 3633.73 2958.62 3559.69 2955.41H3521.98C3481.97 2951.26 3443.8 2935.63 3412.99 2909.41C3554.63 2817.44 3653.97 2660.16 3566.12 2421.48C3495.31 2230.18 3325.61 2087.16 3154.99 1979.55C3098.43 1944.59 3064.4 1905.05 3064.4 1871.01C3064.4 1791 3177.99 1788.7 3224.9 1733.05C3278.7 1670.51 3245.13 1569.34 3198.22 1508.63C3211.56 1506.33 3225.36 1505.41 3238.69 1505.41C3315.5 1504.49 3389.54 1535.31 3442.88 1590.49C3497.14 1642 3517.84 1719.72 3497.14 1791.46L3521.98 1796.51C3537.15 1799.28 3552.33 1800.66 3567.97 1801.11H3578.08C3712.83 1801.11 3773.53 1659.93 3773.53 1659.93C3773.53 1659.93 3917.01 1836.53 3705.93 1974.48C3669.6 1997.94 3653.5 2020.48 3659.95 2043.47L3663.16 2058.64L3678.34 2061.41C3831.47 2102.79 3908.27 2208.56 4003.47 2328.59C4093.6 2443.1 4229.73 2512.09 4375.51 2517.14H4378.27C4378.27 2517.14 4332.28 2663.39 4194.32 2663.39V2663.39Z" fill="#222220"/>
<path d="M3899.06 2045.77C3950.57 2075.2 3995.18 2115.22 4030.14 2163.04C4056.34 2203.51 4093.59 2235.7 4137.74 2255.01C4154.3 2260.54 4172.23 2263.29 4189.7 2263.29C4260.07 2263.29 4324.45 2223.29 4356.64 2160.73L4383.31 2100.96L4318.47 2097.28C4248.57 2084.4 4185.57 2048.53 4139.12 1994.72C4104.64 1957.47 4056.34 1935.86 4005.3 1935.4C3965.75 1935.86 3927.58 1947.81 3894.47 1968.97L3834.68 2010.82L3899.06 2045.77V2045.77ZM4006.68 1980.01L4005.3 1980.46C4044.38 1980.46 4081.18 1997.49 4107.39 2026.46C4161.2 2088.08 4234.78 2129.01 4315.71 2142.34C4290.89 2188.79 4242.59 2217.76 4189.7 2218.22C4176.83 2218.22 4163.96 2215.92 4151.54 2211.79C4077.04 2186.49 4050.83 2073.82 3921.6 2005.77C3946.89 1989.21 3976.33 1980.46 4006.68 1980.01V1980.01ZM3929.42 2638.55L3928.51 2637.63C3890.79 2334.11 3670.51 2114.75 3425.4 1981.84C3402.86 1969.43 3381.72 1959.31 3361.48 1949.65C3462.65 1970.35 3567.97 1945.51 3649.36 1882.05C3649.36 1882.05 3507.26 1986.44 3216.61 1891.71C3297.09 1944.14 3453.45 2017.71 3596.47 2137.29C3953.34 2450.92 3698.11 2757.2 3698.11 2757.2C3804.8 2656.02 3842.05 2501.51 3794.22 2362.62C3869.64 2488.17 3905.97 2633.49 3898.15 2779.73C3888.04 3020.71 3754.22 3231.33 3616.25 3399.19C3574.86 3452.07 3546.35 3514.15 3534.39 3580.38C3557.84 3514.61 3593.26 3453.91 3639.24 3401.49C3788.7 3226.27 3915.17 3044.62 3933.1 2782.95C3948.74 2828.93 4012.2 2962.76 4113.38 3012.88C4113.38 3012.88 3986.45 2936.55 3929.42 2638.55V2638.55ZM2025.54 3760.19C2003.47 3713.29 1991.51 3661.78 1991.04 3609.82C1989.66 3514.62 1950.58 3424.02 1882.51 3357.8C1896.31 3351.37 1909.19 3343.09 1920.69 3332.97C1964.37 3295.72 1989.66 3241.45 1989.21 3183.97L1986.44 3143.04H1945.06C1850.32 3147.64 1758.35 3108.55 1696.26 3036.35C1682.93 3020.72 1670.97 3003.7 1660.39 2985.77C1701.32 2998.18 1743.63 3004.16 1786.4 3004.16H1828.25C1878.38 2999.1 1925.74 2978.87 1963.92 2946.22L2006.68 2907.12L1957.94 2875.85C1848.49 2805.95 1736.73 2673.51 1822.73 2440.81C1878.38 2289.51 2006.68 2152.92 2215.92 2021.4C2286.29 1975.42 2324.91 1924.36 2324.91 1874.25C2324.91 1796.98 2260.07 1766.17 2212.71 1744.56C2191.09 1736.28 2171.31 1724.32 2153.84 1709.14C2117.05 1666.38 2147.86 1584.98 2182.35 1540.83L2228.34 1483.35L2157.52 1469.55C2141.42 1466.79 2124.87 1465.87 2108.31 1465.87C2018.64 1463.11 1932.18 1497.6 1868.71 1560.6C1816.75 1611.65 1789.62 1683.39 1794.68 1756.05H1767.09C1663.61 1756.05 1614.87 1646.6 1613.03 1642L1584.05 1573.48L1538.07 1630.97C1495.3 1687.07 1475.52 1757.43 1483.34 1827.79C1498.98 1905.52 1547.26 1972.65 1616.25 2011.74C1622.68 2015.88 1629.12 2020.48 1634.64 2025.54C1489.32 2071.53 1407.92 2176.38 1322.38 2285.37L1309.97 2301.01C1228.11 2405.4 1103.94 2467.94 971.499 2472.54H908.496L927.81 2532.79C927.81 2540.14 985.755 2710.76 1153.61 2710.76H1161.89C1177.52 2710.29 1192.7 2708.46 1207.88 2705.24C1200.98 2797.22 1166.95 2970.13 1012.43 3034.05L966.44 3053.37L991.733 3099.35C1033.12 3163.27 1104.4 3200.99 1180.74 3200.07C1227.19 3200.52 1272.72 3189.94 1314.11 3168.79C1320.55 3222.14 1332.5 3274.57 1349.52 3325.15C1378.49 3402.87 1378.49 3488.86 1349.52 3566.59L1326.52 3615.34L1378.95 3629.13C1402.86 3634.65 1427.7 3637.86 1452.53 3637.86C1469.09 3637.86 1485.64 3636.03 1501.74 3632.35C1535.77 3624.53 1567.04 3608.89 1593.71 3586.36C1609.81 3637.86 1637.4 3685.24 1674.65 3724.32C1746.85 3798.37 1850.32 3835.15 1985.06 3835.62H2066.92L2025.54 3760.19V3760.19ZM1985.99 3785.94C1613.95 3785.94 1623.14 3466.79 1623.14 3466.79C1603.37 3526.11 1554.62 3571.19 1493.46 3585.9C1481.04 3589.12 1467.71 3590.5 1454.83 3590.5C1433.67 3590.5 1412.98 3587.75 1392.75 3582.68C1426.32 3493.92 1426.32 3395.52 1392.75 3306.76C1366.53 3233.17 1354.12 3154.99 1355.5 3076.81C1313.19 3128.79 1248.34 3157.29 1181.2 3153.16H1178.9C1119.12 3154.08 1063.01 3124.19 1030.36 3074.51C1278.24 2971.51 1253.86 2639.02 1253.86 2639.02C1225.35 2656.5 1192.24 2665.69 1158.67 2665.23H1153.61C1015.65 2665.23 969.66 2518.99 969.66 2518.99H972.419C1118.2 2514.39 1254.78 2445.41 1344.92 2330.9C1439.65 2210.87 1516.91 2105.1 1670.05 2063.71L1685.23 2060.95L1688.45 2045.77C1692.59 2022.32 1676.49 1999.79 1642.46 1976.79C1431.38 1838.83 1574.86 1662.24 1574.86 1662.24C1574.86 1662.24 1634.64 1803.42 1770.31 1803.42H1776.74C1792.38 1802.96 1807.56 1801.58 1822.73 1798.82L1847.56 1793.77C1826.41 1722.02 1847.56 1644.3 1901.83 1592.8C1955.17 1537.61 2029.21 1506.8 2106.01 1507.72C2119.35 1507.72 2133.15 1508.64 2146.49 1510.94C2100.49 1572.1 2066.46 1673.27 2120.27 1735.36C2166.26 1789.17 2280.31 1791.47 2280.31 1873.32C2280.31 1907.35 2248.58 1946.9 2192.02 1982.31C2020.94 2089.92 1851.24 2232.94 1780.88 2424.25C1693.05 2662.93 1792.38 2821.59 1934.02 2912.18C1903.21 2937.94 1865.04 2954.03 1825.03 2958.17H1786.86C1712.82 2961.39 1639.7 2938.86 1580.38 2894.24C1592.33 2957.25 1620.38 3016.12 1662.23 3064.4C1732.59 3145.8 1836.99 3190.86 1944.6 3186.26C1943.68 3229.96 1924.37 3271.34 1890.79 3299.4C1854 3324.23 1812.15 3339.86 1768.01 3345.39C1768.01 3345.39 1928.5 3378.04 1945.98 3614.87C1945.51 3675.11 1960.24 3734.44 1988.29 3787.79L1985.99 3785.94V3785.94Z" fill="#222220"/>
<path d="M1156.83 2262.83H1157.28C1174.76 2262.83 1192.7 2260.07 1209.25 2254.56C1253.4 2235.24 1290.65 2203.05 1316.86 2162.58C1351.35 2114.75 1395.96 2074.74 1447.47 2045.31L1511.85 2010.82L1452.07 1968.97C1418.95 1947.81 1380.78 1935.86 1341.7 1935.4C1290.65 1935.86 1242.36 1957.47 1207.87 1995.19C1161.88 2048.53 1098.42 2084.86 1028.98 2097.74L964.137 2100.96L990.35 2160.74C1022.54 2223.29 1086.46 2262.37 1156.83 2262.83V2262.83ZM1239.6 2026.46C1265.36 1997.49 1302.15 1980.46 1341.24 1980.46C1371.13 1980.93 1400.56 1990.13 1425.85 2006.22C1295.71 2075.67 1268.58 2186.95 1195.91 2212.24C1183.96 2216.39 1171.08 2218.69 1158.2 2218.69C1104.86 2218.69 1056.11 2189.25 1031.28 2142.34C1112.22 2129.01 1185.8 2088.08 1239.6 2026.46ZM1449.77 2781.57C1441.95 2635.33 1477.82 2490.01 1553.7 2364.46C1505.88 2503.34 1543.13 2657.86 1649.82 2759.04C1649.82 2759.04 1394.13 2452.76 1751.45 2139.12C1894.47 2019.56 2050.37 1945.98 2130.85 1893.55C1840.21 1988.29 1698.1 1883.89 1698.1 1883.89C1779.5 1947.36 1884.36 1972.18 1985.53 1951.49C1965.29 1961.15 1944.13 1971.73 1921.61 1983.69C1676.49 2117.05 1454.83 2336.42 1418.5 2639.93V2637.63C1361.47 2935.63 1234.55 3011.97 1234.55 3011.97C1335.26 2962.3 1399.18 2828.02 1414.36 2782.03C1431.38 3044.17 1559.22 3225.82 1708.68 3400.56C1754.21 3452.99 1790.08 3513.69 1813.54 3579.46C1801.11 3513.69 1772.61 3451.62 1730.75 3399.19C1592.79 3231.33 1459.43 3020.71 1449.77 2781.57ZM2589.34 2227.88C2605.43 2212.24 2627.97 2204.89 2650.51 2207.64V2294.56C2650.05 2316.17 2644.53 2336.87 2633.95 2355.72H2720.86C2710.29 2336.87 2704.77 2316.17 2704.31 2294.56V2207.64C2726.38 2204.89 2748.92 2212.24 2765.01 2227.88V2167.64H2589.34V2227.88V2227.88ZM2553.01 1810.77H2552.09C2565.43 1822.27 2581.06 1831.46 2598.09 1836.99L2609.12 1842.04V1785.02L2507.03 1742.25C2512.08 1770.76 2528.64 1795.59 2553.01 1810.77ZM2795.37 1810.32L2794.91 1810.77C2819.29 1795.59 2835.83 1770.76 2840.9 1742.25L2738.81 1785.02V1841.59L2749.38 1836.52C2766.4 1831.01 2782.04 1821.81 2795.37 1810.32V1810.32Z" fill="#222220"/>
<path d="M2978.4 1579.91C2978.4 1493.91 2833.53 1416.65 2673.96 1416.65C2514.38 1416.65 2369.52 1493.91 2369.52 1579.91L2372.73 1601.07L2436.66 1968.96L2372.73 2006.21L2205.81 2100.95C2205.81 2100.95 2168.56 2120.26 2151.08 2131.76C2088.08 2177.75 2074.73 2239.37 2111.07 2266.05C2120.26 2203.5 2174.99 2157.51 2238.46 2159.36C2291.34 2160.74 2340.55 2187.41 2370.44 2231.09C2379.63 2242.14 2387.91 2254.09 2395.27 2266.05C2404.93 2281.69 2414.58 2295.48 2424.24 2308.81H1998.4C2034.27 2370.43 2054.96 2439.88 2059.56 2511.16V3457.13C2059.56 3687.06 2235.69 3795.14 2427.46 3795.14C2574.63 3795.14 2594.4 3788.24 2675.33 3869.18C2756.28 3788.24 2776.05 3795.14 2923.21 3795.14C3113.6 3795.14 3291.11 3686.14 3291.11 3457.13V2512.08C3295.71 2440.8 3316.41 2371.36 3352.28 2309.74H2921.83C2931.48 2296.4 2941.15 2282.6 2950.81 2266.96C2958.62 2255.01 2966.9 2243.05 2975.63 2232.01C3005.98 2188.33 3055.19 2161.66 3108.08 2160.27C3171.54 2158.44 3226.27 2204.42 3235.46 2266.96C3272.26 2240.75 3258.92 2174.99 3195.46 2132.69C3178.44 2120.73 3141.19 2101.87 3141.19 2101.87L2975.63 2004.38L2911.71 1967.13L2975.63 1599.23L2978.4 1579.91V1579.91ZM2431.14 1622.22L2655.56 1698.1V2050.36L2490.46 1962.99L2431.14 1622.22ZM2090.37 2370.9H2477.13C2507.02 2402.17 2543.81 2427 2584.29 2442.63C2575.54 2472.99 2577.84 2505.64 2590.26 2534.61C2604.98 2565.43 2631.19 2589.34 2663.38 2601.76C2669.35 2654.64 2705.23 2698.79 2755.36 2716.26C2727.76 2744.32 2700.63 2770.53 2689.59 2781.11L2432.52 2776.97C2423.78 2772.83 2416.88 2766.39 2412.28 2758.11V2754.89L2454.13 2761.79H2456.9C2465.17 2761.79 2472.07 2756.27 2473.45 2748C2474.83 2738.8 2468.85 2730.52 2459.66 2728.69L2408.15 2720.41L2465.17 2522.66L2410.9 2408.61L2323.99 2500.59L2318.47 2706.15L2260.07 2696.95C2250.87 2695.12 2242.59 2701.09 2240.76 2710.29V2710.75C2239.37 2719.94 2245.35 2728.22 2254.55 2730.07L2278.92 2733.74C2270.18 2738.8 2264.21 2742.48 2263.75 2743.4L2258.69 2747.08V2753.06C2247.19 2805.48 2268.35 2859.75 2311.58 2891.02V2898.38C2308.81 2916.32 2321.23 2933.33 2339.17 2936.54H2344.68C2359.86 2936.54 2373.2 2925.97 2376.42 2910.79C2387.46 2911.25 2398.04 2911.25 2409.07 2910.79H2415.96L2753.06 2971.96L2758.58 2968.28C2785.25 2949.42 2887.8 2876.3 2921.37 2850.09C2931.03 2858.36 2942.06 2865.73 2953.56 2871.24C2937.93 2919.53 2949.88 2972.41 2984.83 3009.21H2121.18V2512.08C2119.35 2463.79 2108.77 2415.96 2090.37 2370.9V2370.9ZM2892.4 2825.71C2857.45 2851.47 2771.45 2914.01 2740.18 2936.09L2434.36 2882.74V2874.46C2439.42 2853.77 2442.18 2832.61 2442.64 2811.46L2700.17 2815.6L2705.23 2810.54C2709.37 2806.4 2790.76 2727.76 2832.16 2682.24C2843.19 2696.03 2856.07 2707.53 2870.78 2716.73C2863.43 2754.44 2871.24 2793.52 2892.4 2825.71V2825.71ZM2381.48 2770.53V2771.91C2388.38 2784.79 2398.49 2795.82 2410.9 2803.19C2410.45 2822.04 2408.6 2840.44 2405.39 2858.83C2405.39 2862.96 2405.39 2867.11 2402.17 2871.24V2877.69C2381.01 2877.69 2360.32 2874.46 2340.08 2868.02C2303.3 2848.25 2282.6 2807.78 2288.58 2766.39C2305.13 2754.89 2323.99 2747.54 2343.76 2744.78C2360.79 2744.32 2375.96 2754.44 2381.48 2770.53V2770.53ZM2349.74 2709.36L2354.81 2514.84L2400.79 2468.85L2428.84 2527.26L2374.12 2716.73L2349.74 2709.36V2709.36ZM2890.1 3733.97H2845.95L2880.44 3621.3C2885.96 3605.66 2857.45 3585.43 2845.49 3567.5C2873.54 3584.51 2902.51 3599.68 2932.4 3613.49C2932.4 3617.16 2890.1 3733.97 2890.1 3733.97ZM3008.28 3607.96L3004.6 3604.75L2980.69 3728.91C2965.52 3728.91 2949.42 3732.14 2934.7 3733.05L2960 3613.49C2967.35 3578.07 2872.16 3567.5 2825.26 3497.14C2794.44 3522.88 2754.9 3534.84 2715.35 3530.71C2680.4 3530.25 2645.91 3526.56 2611.87 3519.67C2605.9 3519.21 2599.92 3519.21 2593.94 3519.67C2579.68 3518.75 2565.88 3526.11 2558.53 3538.52L2551.63 3550.02L2420.56 3518.29L2389.29 3572.56C2384.23 3579.91 2385.16 3590.03 2391.59 3596.47L2400.33 3606.13C2391.59 3623.14 2380.56 3638.78 2367.22 3652.11L2347.91 3628.2C2333.19 3604.29 2334.57 3573.48 2351.13 3550.94L2402.63 3464.02L2512.54 3480.58L2495.53 3441.49C2472.53 3389.99 2507.48 3324.22 2511.16 3286.51C2511.16 3298.01 2499.21 3300.31 2487.25 3300.31H2455.51C2453.21 3299.85 2450.46 3299.85 2448.15 3300.31L2418.26 3318.24L2394.81 3296.63C2391.13 3289.73 2392.51 3281.46 2398.04 3276.39L2452.3 3215.23L2387.91 3140.27L2479.89 3186.26L2507.48 3153.15C2514.84 3160.51 2511.62 3179.82 2511.62 3179.82C2578.31 3196.38 2624.75 3257.08 2622.91 3326.07V3339.4C2632.1 3354.11 2646.83 3364.23 2663.38 3368.37L2788.01 3380.79C2812.84 3372.97 2838.13 3367.91 2863.88 3364.69C2885.96 3364.69 2908.03 3371.59 2926.43 3383.54C2935.17 3377.57 2945.74 3373.88 2956.32 3373.43H2960.46C3016.11 3373.43 3039.55 3424.01 3069.45 3465.41C3091.98 3497.14 3122.33 3544.96 3122.33 3544.96C3113.6 3557.84 3099.34 3565.66 3083.71 3565.66C3078.19 3566.11 3073.13 3566.11 3067.61 3565.66C3007.83 3554.62 2999.09 3431.37 2965.05 3421.71H2959.54C2953.1 3421.71 2947.13 3425.39 2943.91 3431.37C2959.54 3473.22 2950.34 3490.24 2967.35 3523.35C2979.78 3543.12 2995.41 3561.06 3013.35 3576.24C3013.35 3576.24 3011.05 3594.63 3008.28 3607.96V3607.96ZM2338.25 3487.48H2337.33L2342.85 3501.74C2339.17 3514.15 2296.85 3532.09 2296.85 3532.09L2287.66 3511.85C2275.71 3482.88 2284.44 3449.77 2309.73 3430.91L2379.18 3388.61L2453.21 3404.24C2452.76 3418.96 2457.36 3433.21 2466.09 3445.17L2388.37 3430.46L2342.38 3462.64C2335.03 3469.09 2333.65 3479.2 2338.25 3487.48V3487.48ZM3227.65 3457.59C3232.71 3585.44 3143.95 3697.64 3018.41 3722.48L3039.55 3611.19C3039.55 3604.75 3041.85 3596.93 3042.78 3590.49C3049.21 3593.25 3055.66 3595.09 3062.09 3596.47C3069.45 3596.93 3076.8 3596.93 3084.17 3596.47C3109.46 3596.47 3133.38 3584.97 3148.55 3564.74L3165.11 3545.42L3151.3 3526.57C3151.3 3526.57 3120.5 3477.82 3097.51 3445.63L3084.63 3426.31C3058.87 3387.69 3026.22 3338.93 2961.38 3338.93H2955.4C2946.21 3339.4 2936.55 3341.24 2927.8 3344.46C2908.03 3334.8 2886.42 3329.74 2864.35 3329.74C2842.27 3330.2 2820.2 3334.34 2799.51 3342.16L2788.46 3345.38L2667.05 3333.42C2662 3331.12 2657.86 3327.44 2654.64 3322.84L2680.86 3312.26C2673.5 3224.43 2588.88 3170.62 2542.89 3152.68C2540.59 3143.03 2535.99 3134.75 2529.1 3127.86L2502.88 3103.02L2479.89 3130.61L2468.39 3144.41L2298.23 3074.51L2409.07 3212.47L2365.38 3278.69C2356.18 3287.89 2355.72 3303.07 2365.38 3312.73L2411.37 3344L2457.36 3326.52H2461.96C2461.96 3333.42 2456.9 3361.47 2454.6 3369.29L2374.58 3355.49L2289.04 3401.48C2249.49 3429.99 2235.69 3482.42 2256.39 3526.57L2266.05 3547.26L2279.38 3576.69L2309.28 3564.28C2298.23 3594.17 2302.83 3627.28 2322.15 3652.57L2340.08 3675.57L2364 3705.92L2390.67 3677.41C2408.15 3659.94 2421.94 3639.7 2431.6 3617.16L2437.12 3598.77L2424.24 3584.51V3581.75L2438.96 3557.84L2545.19 3582.67L2569.11 3588.19L2581.98 3567.04L2588.88 3555.54C2588.88 3553.24 2588.88 3552.78 2595.32 3552.78H2606.81C2643.15 3560.13 2679.93 3563.82 2716.73 3564.28C2741.55 3565.66 2766.39 3562.9 2790.31 3555.54L2849.17 3622.69L2814.22 3730.29V3736.73C2761.79 3735.82 2711.67 3757.43 2676.26 3795.59C2619.69 3739.49 2579.68 3733.51 2428.38 3733.51C2246.73 3733.51 2123.94 3627.28 2123.94 3457.59V3043.7H3227.65V3457.59V3457.59ZM3257.54 2370.9C3238.68 2415.51 3228.57 2463.34 3226.73 2512.08V2822.04C3186.72 2813.3 3156.83 2779.27 3154.07 2738.34V2724.09H3140.27C3116.35 2722.24 3094.28 2711.21 3077.73 2694.19C3057.49 2670.74 3046.46 2641.31 3046 2610.49C3026.22 2642.69 3028.06 2684.07 3051.06 2714.43C3068.99 2736.96 3095.21 2752.14 3123.71 2755.81C3131.99 2809.16 3174.76 2850.55 3228.1 2857.45V3009.21H3034.96C2984.38 2983.46 2963.22 2923.21 2985.76 2871.24L2993.11 2854.68L2976.1 2848.25C2920.91 2828.94 2890.55 2769.62 2908.03 2713.51L2911.71 2699.71L2898.83 2693.73C2850.55 2665.68 2823.88 2610.96 2831.69 2555.77C2806.4 2581.52 2799.96 2620.62 2816.05 2652.8C2806.86 2663.38 2794.91 2675.79 2781.57 2689.59C2733.28 2679.48 2698.33 2637.63 2696.49 2588.42V2576.92L2685.91 2572.79C2657.86 2564.51 2634.87 2545.19 2621.53 2519.43C2612.79 2498.29 2610.96 2474.37 2616.93 2452.29C2626.13 2454.14 2635.33 2455.51 2644.53 2456.44C2653.72 2456.89 2663.38 2456.89 2672.58 2456.44C2747.08 2456.44 2817.9 2424.24 2867.56 2369.06L3257.54 2370.9V2370.9ZM2959.54 2057.26L3034.96 2103.25L3053.81 2114.29C3014.73 2124.86 2979.31 2146.02 2951.26 2175.45L2948.04 2178.21C2941.61 2185.11 2935.63 2192.01 2929.65 2199.36L2925.97 2203.96C2919.99 2211.32 2914.47 2219.13 2909.41 2227.41L2906.66 2231.56C2900.21 2240.75 2894.23 2250.87 2888.26 2260.99C2846.41 2344.23 2765.01 2399.87 2672.58 2409.07C2580.14 2399.87 2498.74 2344.23 2456.9 2260.99C2450.92 2250.87 2444.94 2241.21 2438.96 2231.56L2435.28 2226.5L2420.56 2202.59L2416.43 2197.52C2410.45 2190.16 2404.47 2183.27 2398.49 2176.83L2395.27 2173.62C2367.22 2144.18 2331.8 2123.02 2292.72 2112.45L2312.03 2101.41L2387.91 2055.42L2465.63 2009.44L2673.03 2122.11L2880.44 2013.11L2959.54 2057.26V2057.26ZM2857.45 1965.29L2692.35 2052.21V1698.56L2916.31 1622.68L2857.45 1965.29V1965.29ZM2673.5 1661.31L2427.92 1562.89C2448.62 1513.23 2545.19 1470.92 2673.5 1470.92C2801.81 1470.92 2898.38 1513.23 2919.07 1562.89L2673.5 1661.31Z" fill="#222220"/>
</svg>
