<svg width="557" height="525" viewBox="0 0 557 525" fill="none" xmlns="http://www.w3.org/2000/svg">
<path fill-rule="evenodd" clip-rule="evenodd" d="M178.213 109.503H115.98V168.498L16.5686 262.626L115.98 356.774V415.365H178.213L201.248 437.184L278.029 509.513L354.406 437.205L377.844 415.385H439.673V356.794L463.112 334.975L539.489 262.646L463.112 190.317L439.673 168.498V109.503H377.844L354.406 87.6834L278.029 15.3547L178.213 109.503ZM92.9457 87.6834H185.083L278.029 0L370.974 87.6834H463.112V174.559L556.058 262.633L463.112 350.316V437.191H370.974L278.029 524.874L185.083 437.191H92.9457V350.316L0 262.633L92.9457 174.545V87.6699V87.6834ZM48.8975 262.633L278.029 46.4547L506.756 262.633L278.029 478.81L48.8975 262.633Z" fill="#006D58"/>
<path fill-rule="evenodd" clip-rule="evenodd" d="M439.673 199.207C414.133 228.839 379.595 250.376 342.282 261.838C322.043 267.858 305.118 270.135 284.09 271.131C267.239 270.896 249.761 273.515 234.789 281.637C207.78 295.591 188.605 321.943 187.103 352.754C184.706 415.573 239.746 432.935 278.029 478.824L345.111 415.385L439.673 325.681L506.756 262.646L439.673 199.207ZM115.98 325.681C140.967 298.049 172.973 276.432 208.521 265.07C247.572 249.278 280.75 259.467 313.186 246.887C340.013 236.92 361.006 213.013 367.337 185.064C379.514 116.426 320.817 92.4648 278.029 46.4681L210.946 109.503L115.98 199.193L48.8973 262.633L115.98 325.668V325.681ZM16.5684 262.633L115.98 168.484V109.49H178.213L278.029 15.3412L377.844 109.49H439.673V168.484L539.489 262.633L439.673 356.781V415.371H377.844L278.029 509.52L178.213 415.371H115.98V356.781L16.5684 262.646V262.633Z" fill="#F1A400"/>
</svg>
