<svg xmlns="http://www.w3.org/2000/svg" width="64" height="48" viewBox="0 0 64 48" fill="none">
    <g clip-path="url(#clip0_797_274)">
        <mask id="mask0_797_274" style="mask-type:luminance" maskUnits="userSpaceOnUse" x="0" y="0" width="64" height="48">
            <path d="M64 0H0V48H64V0Z" fill="white"/>
        </mask>
        <g mask="url(#mask0_797_274)">
            <path fill-rule="evenodd" clip-rule="evenodd" d="M55.2727 3H8.72727C5.51398 3 2.90909 5.68629 2.90909 9V39C2.90909 42.3137 5.51398 45 8.72727 45H55.2727C58.486 45 61.0909 42.3137 61.0909 39V9C61.0909 5.68629 58.486 3 55.2727 3ZM8.72727 0C3.90733 0 0 4.02944 0 9V39C0 43.9706 3.90733 48 8.72727 48H55.2727C60.0927 48 64 43.9706 64 39V9C64 4.02944 60.0927 0 55.2727 0H8.72727Z" fill="black"/>
            <path d="M36.4688 35.795V31.795H37.73C38.3588 31.795 38.8665 31.7193 39.2528 31.5677C39.6392 31.4087 39.946 31.1776 40.1733 30.8746C40.4081 30.564 40.605 30.1776 40.7641 29.7155L41.0483 28.9541L32.5938 12.2041H37.6847L43.1618 23.6586L47.7415 12.2041H52.7641L44.7415 30.9087C44.3551 31.7723 43.8968 32.5753 43.3665 33.3177C42.8438 34.0602 42.1732 34.6587 41.355 35.1132C40.5368 35.5677 39.4914 35.795 38.2188 35.795H36.4688Z" fill="black"/>
            <path d="M13.2383 35.4768V12.2041H22.4201C24.1853 12.2041 25.689 12.5412 26.9315 13.2155C28.1739 13.8821 29.1209 14.8102 29.7724 15.9996C30.4315 17.1814 30.761 18.545 30.761 20.0905C30.761 21.6359 30.4277 22.9996 29.761 24.1814C29.0943 25.3632 28.1284 26.2836 26.8633 26.9427C25.6057 27.6018 24.083 27.9314 22.2951 27.9314H16.4428V23.9882H21.4996C22.4466 23.9882 23.2269 23.8253 23.8406 23.4996C24.4618 23.1662 24.9239 22.7079 25.2269 22.1246C25.5375 21.5336 25.6928 20.8556 25.6928 20.0905C25.6928 19.3177 25.5375 18.6435 25.2269 18.0677C24.9239 17.4844 24.4618 17.0336 23.8406 16.7155C23.2193 16.3897 22.4315 16.2268 21.4769 16.2268H18.1587V35.4768H13.2383Z" fill="black"/>
        </g>
    </g>
    <defs>
        <clipPath id="clip0_797_274">
            <rect width="64" height="48" fill="white"/>
        </clipPath>
    </defs>
</svg>