<svg width="29" height="28" viewBox="0 0 29 28" fill="none" xmlns="http://www.w3.org/2000/svg">
<rect x="27.1667" y="1.5" width="25" height="25" rx="12.5" transform="rotate(90 27.1667 1.5)" fill="white"/>
<rect x="27.1667" y="1.5" width="25" height="25" rx="12.5" transform="rotate(90 27.1667 1.5)" stroke="#F3F3F3" stroke-width="3"/>
<path d="M17.2505 14.8334C17.4841 14.8336 17.7088 14.9149 17.8786 15.0607C18.0485 15.2065 18.1507 15.4058 18.1644 15.6179C18.1781 15.8299 18.1022 16.0387 17.9523 16.2016C17.8023 16.3645 17.5897 16.4691 17.3577 16.4942L17.2505 16.5001H12.1317L13.3159 17.5776C13.4737 17.7211 13.5685 17.912 13.5825 18.1145C13.5965 18.3171 13.5287 18.5173 13.3919 18.6776L13.3159 18.7559C13.158 18.8994 12.9481 18.9856 12.7253 18.9984C12.5026 19.0111 12.2824 18.9495 12.1061 18.8251L12.0199 18.7559L9.27035 16.2559C8.71769 15.7542 9.06872 14.9109 9.81385 14.8384L9.91833 14.8334H17.2505ZM16.893 9.17489L16.9801 9.24406L19.7296 11.7441C20.2823 12.2458 19.9313 13.0891 19.1862 13.1616L19.0817 13.1666H11.7495C11.5159 13.1664 11.2912 13.0851 11.1214 12.9393C10.9515 12.7935 10.8493 12.5942 10.8356 12.3821C10.8219 12.1701 10.8978 11.9613 11.0477 11.7984C11.1977 11.6355 11.4103 11.5309 11.6423 11.5058L11.7495 11.4999H16.8683L15.6841 10.4224C15.5263 10.2789 15.4315 10.088 15.4175 9.88547C15.4035 9.68295 15.4713 9.48273 15.6081 9.32239L15.6841 9.24406C15.842 9.10057 16.0519 9.01438 16.2747 9.00164C16.4974 8.98891 16.7167 9.05051 16.893 9.17489Z" fill="#BDBDBD"/>
</svg>
