<svg width="24" height="25" viewBox="0 0 24 25" fill="none" xmlns="http://www.w3.org/2000/svg">
<path fill-rule="evenodd" clip-rule="evenodd" d="M3.3749 11.0069C8.74359 8.60777 12.3236 7.02614 14.1148 6.26198C19.2292 4.08013 20.2919 3.70113 20.9846 3.68861C21.1369 3.68586 21.4776 3.72458 21.6982 3.90822C21.8845 4.06328 21.9358 4.27274 21.9603 4.41975C21.9848 4.56677 22.0154 4.90166 21.9911 5.16335C21.714 8.15013 20.5147 15.3983 19.9046 18.7435C19.6465 20.159 19.1382 20.6336 18.6461 20.6801C17.5766 20.781 16.7645 19.9551 15.7287 19.2587C14.1078 18.1689 13.1921 17.4906 11.6188 16.4271C9.80053 15.1982 10.9792 14.5227 12.0155 13.4188C12.2866 13.13 16.9987 8.73394 17.0899 8.33516C17.1013 8.28528 17.1119 8.09937 17.0042 8.0012C16.8965 7.90304 16.7376 7.93661 16.6229 7.9633C16.4604 8.00115 13.871 9.75654 8.85487 13.2295C8.11989 13.7471 7.45416 13.9994 6.8577 13.9861C6.20015 13.9716 4.93528 13.6048 3.99498 13.2913C2.84166 12.9068 1.92503 12.7035 2.00485 12.0504C2.04642 11.7103 2.5031 11.3624 3.3749 11.0069Z" fill="#000000"/>
</svg>
