<svg width="279" height="30" viewBox="0 0 279 30" fill="none" xmlns="http://www.w3.org/2000/svg">
<g clip-path="url(#clip0_3449_2509)">
<path d="M196.897 12.6474V8.61722L196.817 7.98255H201.769V8.74416H197.944V9.90243H200.911V10.6878H197.944V12.6474H196.897ZM202.559 12.6474V7.98255H203.605V12.6474H202.559ZM204.954 12.6474V8.61722L204.875 7.98255H206.017L208.715 10.8068L209.024 11.2352H209.111V7.98255H210.159V12.6474H209.152L206.39 9.7755L206.081 9.40263H206.002V12.6474H204.954ZM210.794 12.6474L213.119 7.98255H214.683L216.999 12.6474H215.776L215.309 11.6398H212.468L211.953 12.6474H210.794ZM212.754 10.8624H215.016L213.928 8.69655H213.849L212.754 10.8624ZM217.714 12.6474V8.61722L217.635 7.98255H218.777L221.475 10.8068L221.784 11.2352H221.872V7.98255H222.918V12.6474H221.911L219.151 9.7755L218.841 9.40263H218.762V12.6474H217.714ZM225.562 12.6474C225.186 12.6474 224.893 12.5945 224.682 12.4887C224.47 12.383 224.321 12.2242 224.238 12.0127C224.153 11.8012 224.11 11.5394 224.11 11.2273V9.45816C224.11 8.95042 224.223 8.57755 224.451 8.33955C224.678 8.09626 225.049 7.97461 225.562 7.97461H227.95C228.315 7.97461 228.592 7.99577 228.782 8.03808C228.978 8.07511 229.076 8.11477 229.076 8.15709L228.918 8.81556C228.827 8.79968 228.56 8.78382 228.116 8.76796C227.677 8.74679 227.038 8.73622 226.197 8.73622H225.792C225.369 8.73622 225.158 8.92398 225.158 9.29949V11.3225C225.158 11.5023 225.203 11.6425 225.292 11.743C225.387 11.8381 225.554 11.8857 225.792 11.8857H226.117C226.995 11.8857 227.675 11.8778 228.156 11.862C228.643 11.8409 228.944 11.8197 229.06 11.7985L229.386 12.3222C229.386 12.3486 229.341 12.3882 229.251 12.4411C229.166 12.494 229.008 12.5416 228.775 12.5839C228.543 12.6263 228.206 12.6474 227.768 12.6474H225.562ZM230.178 12.6474V7.98255H235.113V8.74416H231.225V9.83897H234.193V10.6244H231.225V11.8857H235.145L235.461 12.5601C235.461 12.5813 235.391 12.6024 235.248 12.6236C235.105 12.6394 234.859 12.6474 234.51 12.6474H230.178ZM239.145 12.6474L237.44 7.99048H238.551L239.67 11.0369L239.852 11.8064H239.931L240.035 11.267L241.089 7.99048H242.438L243.541 11.267L243.684 11.8064H243.763L243.945 11.0369L244.985 7.99048H246.096L246.016 8.46648L244.382 12.6474H243.033L241.954 9.52956L241.796 9.02182H241.716L241.565 9.52956L240.494 12.6474H239.145ZM246.812 12.6474V7.98255H247.859V12.6474H246.812ZM250.723 12.6474L250.715 8.73622H248.653V7.97461H253.84V8.73622H251.77V12.6474H250.723ZM254.636 12.6474V7.98255H255.684V9.9183H258.794V7.98255H259.841V12.6474H258.794V10.6799H255.684V12.6474H254.636ZM262.486 12.6474C262.116 12.6474 261.826 12.5945 261.613 12.4887C261.402 12.383 261.252 12.2242 261.162 12.0127C261.077 11.8012 261.034 11.5394 261.034 11.2273V9.39469C261.034 9.08794 261.077 8.83142 261.162 8.62515C261.246 8.4136 261.395 8.25493 261.606 8.14915C261.817 8.03808 262.11 7.98255 262.486 7.98255H264.803C265.173 7.98255 265.461 8.03808 265.668 8.14915C265.879 8.25493 266.027 8.4136 266.112 8.62515C266.202 8.83142 266.246 9.08794 266.246 9.39469V11.2273C266.246 11.6927 266.144 12.0471 265.937 12.2904C265.732 12.5284 265.352 12.6474 264.803 12.6474H262.486ZM262.716 11.8857H264.581C264.776 11.8857 264.927 11.8356 265.032 11.7351C265.145 11.6346 265.2 11.497 265.2 11.3225V9.29949C265.2 9.14611 265.145 9.01653 265.032 8.91075C264.921 8.79968 264.771 8.74416 264.581 8.74416H262.716C262.526 8.74416 262.373 8.7944 262.257 8.89489C262.14 8.99538 262.082 9.13024 262.082 9.29949V11.3225C262.082 11.5023 262.138 11.6425 262.249 11.743C262.364 11.8381 262.52 11.8857 262.716 11.8857ZM268.61 12.7267C268.129 12.7267 267.793 12.5971 267.602 12.338C267.412 12.0789 267.317 11.7351 267.317 11.3066V7.98255H268.364V11.3384C268.364 11.587 268.424 11.7536 268.546 11.8381C268.668 11.9228 268.819 11.9651 268.998 11.9651H270.68C270.849 11.9651 270.998 11.9228 271.124 11.8381C271.252 11.7483 271.316 11.5817 271.316 11.3384V7.98255H272.362V11.3066C272.362 11.5922 272.323 11.8409 272.243 12.0524C272.164 12.2639 272.031 12.4306 271.847 12.5522C271.662 12.6686 271.406 12.7267 271.077 12.7267H268.61ZM275.105 12.6474L275.096 8.73622H273.034V7.97461H278.223V8.73622H276.151V12.6474H275.105ZM196.817 22.3323V17.6595H200.269C200.766 17.6595 201.128 17.76 201.355 17.961C201.583 18.1567 201.697 18.3947 201.697 18.675V18.913C201.697 19.1298 201.649 19.3097 201.554 19.4525C201.464 19.59 201.366 19.6879 201.261 19.746C201.493 19.8201 201.678 19.9496 201.816 20.1347C201.953 20.3146 202.022 20.5526 202.022 20.8488V20.9916C202.022 21.1502 202.004 21.3089 201.967 21.4676C201.929 21.6262 201.858 21.7717 201.752 21.9039C201.652 22.0308 201.506 22.1339 201.316 22.2133C201.131 22.2927 200.887 22.3323 200.586 22.3323H196.817ZM197.865 19.5319H200.102C200.287 19.5371 200.424 19.4922 200.514 19.397C200.604 19.2965 200.649 19.1721 200.649 19.0241V18.9448C200.649 18.8231 200.608 18.7068 200.523 18.5956C200.437 18.4793 200.279 18.4212 200.047 18.4212H197.865V19.5319ZM197.865 21.5707H200.364C200.565 21.5707 200.715 21.5205 200.817 21.42C200.922 21.3195 200.975 21.182 200.975 21.0074V20.8646C200.975 20.7007 200.913 20.5684 200.792 20.468C200.67 20.3622 200.469 20.3093 200.189 20.3093H197.865V21.5707ZM204.504 22.3323C204.134 22.3323 203.844 22.2794 203.631 22.1736C203.42 22.0679 203.27 21.9092 203.18 21.6976C203.095 21.4861 203.052 21.2243 203.052 20.9122V19.0796C203.052 18.7729 203.095 18.5164 203.18 18.31C203.264 18.0985 203.413 17.9399 203.624 17.8341C203.835 17.723 204.128 17.6675 204.504 17.6675H206.821C207.191 17.6675 207.479 17.723 207.686 17.8341C207.897 17.9399 208.045 18.0985 208.13 18.31C208.22 18.5164 208.265 18.7729 208.265 19.0796V20.9122C208.265 21.3777 208.162 21.732 207.955 21.9753C207.75 22.2133 207.37 22.3323 206.821 22.3323H204.504ZM204.734 21.5707H206.599C206.794 21.5707 206.945 21.5205 207.05 21.42C207.161 21.3195 207.218 21.182 207.218 21.0074V18.9844C207.218 18.831 207.161 18.7015 207.05 18.5956C206.939 18.4846 206.789 18.4291 206.599 18.4291H204.734C204.544 18.4291 204.391 18.4793 204.274 18.5798C204.158 18.6803 204.1 18.8152 204.1 18.9844V21.0074C204.1 21.1873 204.156 21.3274 204.267 21.4279C204.382 21.5231 204.538 21.5707 204.734 21.5707ZM214.523 22.4116C214.312 22.4116 214.103 22.3799 213.896 22.3164C213.695 22.2477 213.465 22.0837 213.206 21.8246L212.635 21.2533C212.402 21.0153 212.146 20.8409 211.866 20.7297C211.59 20.6187 211.244 20.5632 210.826 20.5632H210.581V22.3323H209.533V18.3021L209.454 17.6595H212.969C213.307 17.6595 213.571 17.7045 213.761 17.7944C213.957 17.8843 214.1 18.0033 214.19 18.1514C214.286 18.2942 214.346 18.4476 214.372 18.6116C214.399 18.7755 214.412 18.9315 214.412 19.0796V19.2303C214.412 19.3467 214.397 19.4762 214.365 19.619C214.333 19.7618 214.272 19.902 214.182 20.0395C214.092 20.1771 213.962 20.2934 213.793 20.3886C213.629 20.4838 213.413 20.5393 213.142 20.5552C213.211 20.5923 213.298 20.6505 213.405 20.7297C213.511 20.8038 213.618 20.8858 213.729 20.9758C213.846 21.0656 213.951 21.1476 214.047 21.2217C214.143 21.2957 214.216 21.3486 214.269 21.3803C214.459 21.4914 214.629 21.5681 214.777 21.6104C214.925 21.6526 215.046 21.6765 215.142 21.6818C215.238 21.687 215.293 21.6897 215.309 21.6897L215.15 22.3323C215.102 22.3482 215.023 22.364 214.912 22.3799C214.801 22.4011 214.671 22.4116 214.523 22.4116ZM211.77 19.8412C211.971 19.8412 212.151 19.8386 212.31 19.8333C212.468 19.8227 212.611 19.8121 212.739 19.8015C212.971 19.7751 213.132 19.7116 213.222 19.6111C213.317 19.5054 213.364 19.3705 213.364 19.2066V19.0241C213.364 18.8549 213.32 18.7121 213.23 18.5956C213.14 18.4793 212.978 18.4212 212.746 18.4212H210.581V19.8015C210.813 19.8175 211.027 19.828 211.223 19.8333C211.418 19.8386 211.601 19.8412 211.77 19.8412ZM216.103 22.3323V18.3021L216.023 17.6675H219.705C220.133 17.6675 220.46 17.7203 220.688 17.8261C220.921 17.932 221.083 18.0906 221.173 18.3021C221.262 18.5085 221.307 18.7676 221.307 19.0796V20.9122C221.307 21.2296 221.262 21.494 221.173 21.7055C221.088 21.9119 220.929 22.0679 220.697 22.1736C220.469 22.2794 220.138 22.3323 219.705 22.3323H216.103ZM217.15 21.5707H219.641C220.048 21.5707 220.255 21.383 220.26 21.0074V18.9844C220.26 18.831 220.215 18.7015 220.125 18.5956C220.035 18.4846 219.873 18.4291 219.641 18.4291H217.15V21.5707ZM222.415 22.3323V17.6675H227.35V18.4291H223.463V19.5238H226.43V20.3093H223.463V21.5707H227.382L227.699 22.2451C227.699 22.2662 227.627 22.2874 227.484 22.3085C227.341 22.3243 227.096 22.3323 226.747 22.3323H222.415ZM233.559 22.4116C233.347 22.4116 233.138 22.3799 232.932 22.3164C232.731 22.2477 232.5 22.0837 232.242 21.8246L231.67 21.2533C231.437 21.0153 231.181 20.8409 230.901 20.7297C230.626 20.6187 230.28 20.5632 229.862 20.5632H229.616V22.3323H228.569V18.3021L228.489 17.6595H232.003C232.342 17.6595 232.607 17.7045 232.797 17.7944C232.993 17.8843 233.136 18.0033 233.226 18.1514C233.32 18.2942 233.382 18.4476 233.408 18.6116C233.435 18.7755 233.448 18.9315 233.448 19.0796V19.2303C233.448 19.3467 233.432 19.4762 233.4 19.619C233.369 19.7618 233.307 19.902 233.217 20.0395C233.128 20.1771 232.998 20.2934 232.829 20.3886C232.665 20.4838 232.449 20.5393 232.178 20.5552C232.247 20.5923 232.334 20.6505 232.44 20.7297C232.545 20.8038 232.654 20.8858 232.765 20.9758C232.882 21.0656 232.987 21.1476 233.083 21.2217C233.178 21.2957 233.252 21.3486 233.305 21.3803C233.495 21.4914 233.665 21.5681 233.813 21.6104C233.96 21.6526 234.082 21.6765 234.178 21.6818C234.273 21.687 234.329 21.6897 234.344 21.6897L234.186 22.3323C234.137 22.3482 234.058 22.364 233.947 22.3799C233.836 22.4011 233.706 22.4116 233.559 22.4116ZM230.806 19.8412C231.006 19.8412 231.187 19.8386 231.345 19.8333C231.504 19.8227 231.647 19.8121 231.774 19.8015C232.007 19.7751 232.167 19.7116 232.257 19.6111C232.353 19.5054 232.4 19.3705 232.4 19.2066V19.0241C232.4 18.8549 232.355 18.7121 232.265 18.5956C232.176 18.4793 232.014 18.4212 231.781 18.4212H229.616V19.8015C229.849 19.8175 230.063 19.828 230.259 19.8333C230.454 19.8386 230.637 19.8412 230.806 19.8412ZM235.948 22.3323C235.588 22.3323 235.323 22.3164 235.154 22.2848C234.985 22.253 234.9 22.2159 234.9 22.1736L235.218 21.4834C235.34 21.5046 235.641 21.5258 236.122 21.5469C236.608 21.5628 237.276 21.5707 238.121 21.5707H238.272C238.499 21.5707 238.661 21.531 238.756 21.4517C238.851 21.367 238.898 21.227 238.898 21.0313V20.8725C238.898 20.6875 238.859 20.5552 238.78 20.4759C238.706 20.3965 238.537 20.3569 238.272 20.3569H236.431C235.897 20.3569 235.509 20.2591 235.265 20.0634C235.022 19.8623 234.9 19.5371 234.9 19.0875V18.9606C234.9 18.7279 234.943 18.5137 235.027 18.318C235.118 18.1224 235.268 17.9663 235.479 17.8499C235.691 17.7282 235.982 17.6675 236.352 17.6675H238.51C238.87 17.6675 239.161 17.686 239.383 17.723C239.605 17.76 239.716 17.7997 239.716 17.842L239.557 18.5085C239.419 18.4925 239.107 18.4767 238.621 18.4609C238.134 18.4396 237.481 18.4291 236.661 18.4291L236.574 18.4212C236.331 18.4212 236.167 18.4714 236.083 18.5719C235.998 18.6671 235.953 18.7887 235.948 18.9368V19.0717C235.948 19.2462 235.995 19.3785 236.091 19.4683C236.191 19.553 236.354 19.5953 236.582 19.5953H238.343C238.682 19.5953 238.97 19.6297 239.208 19.6984C239.446 19.7671 239.628 19.8941 239.756 20.0792C239.882 20.2591 239.946 20.5261 239.946 20.8804V21.0074C239.946 21.4041 239.843 21.7241 239.637 21.9674C239.436 22.2107 239.084 22.3323 238.582 22.3323H235.948Z" fill="white"/>
<path d="M2.83997 22.3895V9.98392L2.59576 8.03028H6.30766L11.8267 17.7985L17.541 8.03028H20.8378V22.3895H17.6143V13.2807H17.3456L16.3933 15.4052L13.3164 20.9242H10.3615L7.28447 15.4052L6.30766 13.2807H6.06345V22.3895H2.83997ZM28.9753 22.3895C27.8357 22.3895 26.9403 22.2267 26.2891 21.9011C25.6378 21.5755 25.1739 21.0871 24.8972 20.4359C24.6366 19.7846 24.5063 18.9787 24.5063 18.0183V12.3772C24.5063 11.4329 24.6366 10.6433 24.8972 10.0083C25.1576 9.35713 25.6135 8.86871 26.2646 8.54311C26.9159 8.20122 27.8194 8.03028 28.9753 8.03028H36.106C37.2457 8.03028 38.133 8.20122 38.7679 8.54311C39.4191 8.86871 39.875 9.35713 40.1354 10.0083C40.4122 10.6433 40.5506 11.4329 40.5506 12.3772V18.0183C40.5506 19.4509 40.2331 20.5417 39.5982 21.2906C38.9633 22.0231 37.7992 22.3895 36.106 22.3895H28.9753ZM29.6835 20.0451H35.4223C36.0247 20.0451 36.4887 19.8904 36.8142 19.5811C37.1561 19.2718 37.327 18.8485 37.327 18.3113V12.084C37.327 11.6119 37.1561 11.2131 36.8142 10.8875C36.4724 10.5456 36.0084 10.3746 35.4223 10.3746H29.6835C29.0975 10.3746 28.6253 10.5293 28.2672 10.8386C27.9089 11.148 27.7299 11.5631 27.7299 12.084V18.3113C27.7299 18.8648 27.9008 19.2962 28.2427 19.6055C28.6009 19.8986 29.0812 20.0451 29.6835 20.0451ZM44.4548 22.3895V9.98392L44.2106 8.03028H47.7271L56.0301 16.7239L56.9825 18.0426H57.2511V8.03028H60.4746V22.3895H57.3732L48.8749 13.5493L47.9225 12.4015H47.6783V22.3895H44.4548ZM64.386 22.3895V8.03028H79.5755V10.3746H67.6096V13.7446H76.7428V16.1623H67.6096V20.0451H79.6732L80.6501 22.1209C80.6501 22.186 80.4303 22.2511 79.9907 22.3163C79.5512 22.365 78.7941 22.3895 77.7196 22.3895H64.386ZM87.502 22.3895V16.4309L80.3958 8.03028H84.3029L87.9172 12.5969L89.0405 14.111H89.2848L90.4081 12.5969L94.0223 8.03028H97.9296L96.9772 9.49551L90.7256 16.5286V22.3895H87.502ZM100.378 22.3895V9.98392L100.134 8.00586H110.953C111.994 8.00586 112.808 8.14425 113.395 8.42101C113.997 8.69778 114.437 9.06408 114.713 9.51993C115.006 9.9595 115.194 10.4316 115.275 10.9363C115.356 11.441 115.397 11.9213 115.397 12.3772V13.8179C115.397 14.1924 115.34 14.6157 115.226 15.0878C115.112 15.5437 114.9 15.9913 114.591 16.4309C114.282 16.8542 113.834 17.2123 113.248 17.5055C112.662 17.7822 111.897 17.9205 110.953 17.9205H108.462C107.436 17.9205 106.476 17.8962 105.58 17.8473C104.701 17.7985 104.042 17.7577 103.602 17.7251V22.3895H100.378ZM103.602 15.5761H110.244C110.977 15.5761 111.482 15.3971 111.758 15.039C112.035 14.6808 112.174 14.2493 112.174 13.7446V12.2062C112.174 11.6852 112.035 11.2456 111.758 10.8875C111.482 10.5293 110.985 10.3502 110.269 10.3502H103.602V15.5761ZM166.607 22.6337C165.956 22.6337 165.312 22.5359 164.678 22.3406C164.059 22.1289 163.351 21.6243 162.553 20.8266L160.795 19.0683C160.079 18.3356 159.289 17.7985 158.425 17.4566C157.58 17.1146 156.513 16.9437 155.227 16.9437H154.47V22.3895H151.247V9.98392L151.002 8.00586H161.82C162.863 8.00586 163.677 8.14425 164.262 8.42101C164.865 8.69778 165.304 9.06408 165.582 9.51993C165.875 9.9595 166.061 10.4316 166.143 10.9363C166.224 11.441 166.265 11.9213 166.265 12.3772V12.8411C166.265 13.1993 166.216 13.5982 166.118 14.0377C166.021 14.4773 165.833 14.9087 165.557 15.332C165.28 15.7553 164.881 16.1134 164.36 16.4065C163.855 16.6995 163.188 16.8705 162.357 16.9193C162.57 17.0333 162.838 17.2123 163.164 17.4566C163.489 17.6845 163.823 17.9368 164.164 18.2136C164.523 18.4904 164.848 18.7426 165.141 18.9706C165.435 19.1985 165.663 19.3613 165.825 19.459C166.412 19.8009 166.933 20.037 167.389 20.1673C167.845 20.2974 168.219 20.3708 168.512 20.387C168.805 20.4033 168.976 20.4114 169.025 20.4114L168.536 22.3895C168.389 22.4383 168.146 22.4872 167.803 22.5359C167.462 22.6011 167.063 22.6337 166.607 22.6337ZM158.133 14.7215C158.751 14.7215 159.305 14.7134 159.793 14.6971C160.282 14.6645 160.721 14.632 161.112 14.5994C161.828 14.518 162.325 14.3227 162.602 14.0133C162.895 13.6877 163.041 13.2726 163.041 12.7679V12.2062C163.041 11.6852 162.903 11.2456 162.627 10.8875C162.349 10.5293 161.853 10.3502 161.137 10.3502H154.47V14.5994C155.186 14.6482 155.846 14.6808 156.448 14.6971C157.051 14.7134 157.612 14.7215 158.133 14.7215ZM175.156 22.3895L175.132 10.3502H168.782V8.00586H184.753V10.3502H178.38V22.3895H175.156Z" fill="white"/>
<path fill-rule="evenodd" clip-rule="evenodd" d="M123.866 7.92969C120.639 7.92969 118.023 10.5456 118.023 13.7724V16.427C118.023 19.6539 120.639 22.2697 123.866 22.2697H143.554C146.782 22.2697 149.397 19.6539 149.397 16.427V13.7724C149.397 10.5456 146.782 7.92969 143.554 7.92969H123.866ZM124.645 10.6983C122.708 10.6983 121.138 12.2679 121.138 14.204V15.9954C121.138 17.9316 122.708 19.5011 124.645 19.5011H142.776C144.712 19.5011 146.281 17.9316 146.281 15.9954V14.204C146.281 12.2679 144.712 10.6983 142.776 10.6983H124.645Z" fill="white"/>
<path d="M133.711 16.6889C134.63 16.6889 135.374 15.944 135.374 15.0251C135.374 14.1062 134.63 13.3613 133.711 13.3613C132.792 13.3613 132.047 14.1062 132.047 15.0251C132.047 15.944 132.792 16.6889 133.711 16.6889Z" fill="white"/>
<path d="M191.577 7.4873H190.638V22.27H191.577V7.4873Z" fill="white"/>
</g>
<defs>
<clipPath id="clip0_3449_2509">
<rect width="277.91" height="29.9996" fill="white" transform="translate(0.544983)"/>
</clipPath>
</defs>
</svg>
