<svg width="140" height="24" viewBox="0 0 239 59" fill="none" xmlns="http://www.w3.org/2000/svg">
<path d="M2.1875 45C0.729167 45 0 44.2188 0 42.6562V2.53125C0 0.96875 0.729167 0.1875 2.1875 0.1875H11.25C12.4583 0.1875 13.3229 1.02083 13.8438 2.6875L22.3125 30.0938C22.6875 31.2812 22.9479 32.2604 23.0938 33.0312C23.2396 33.7812 23.3646 34.6771 23.4688 35.7188H23.6562C23.7604 34.6771 23.8854 33.7812 24.0312 33.0312C24.1771 32.2604 24.4375 31.2812 24.8125 30.0938L33.2812 2.6875C33.8021 1.02083 34.6667 0.1875 35.875 0.1875H44.9375C46.3958 0.1875 47.125 0.96875 47.125 2.53125V42.6562C47.125 44.2188 46.3958 45 44.9375 45H40.1875C38.7292 45 38 44.2188 38 42.6562V16.8438C38 15.5938 38.0521 14.3438 38.1562 13.0938H37.9375L28.9062 42.4688C28.3854 44.1562 27.4896 45 26.2188 45H20.9062C19.6354 45 18.7396 44.1562 18.2188 42.4688L9.1875 13.0938H8.96875C9.07292 14.3438 9.125 15.5938 9.125 16.8438V42.6562C9.125 44.2188 8.39583 45 6.9375 45H2.1875Z" fill="#704EED"/>
<path d="M57.9688 45C57.0312 45 56.5625 44.5312 56.5625 43.5938V13.5938C56.5625 12.6562 57.0312 12.1875 57.9688 12.1875H60.6562C61.5938 12.1875 62.0625 12.6562 62.0625 13.5938V43.5938C62.0625 44.5312 61.5938 45 60.6562 45H57.9688ZM57.9688 6.25C57.0312 6.25 56.5625 5.78125 56.5625 4.84375V2.15625C56.5625 1.21875 57.0312 0.75 57.9688 0.75H60.6562C61.5938 0.75 62.0625 1.21875 62.0625 2.15625V4.84375C62.0625 5.78125 61.5938 6.25 60.6562 6.25H57.9688ZM69.6562 41.9375C69.0104 41.3333 68.875 40.7708 69.25 40.25L70.6562 38.2812C71.1146 37.6562 71.7917 37.6875 72.6875 38.375C73.9167 39.3125 75.2812 40.0625 76.7812 40.625C78.3021 41.1875 80.0312 41.4688 81.9688 41.4688C83.1146 41.4688 84.1354 41.3333 85.0312 41.0625C85.9271 40.7708 86.7083 40.2396 87.375 39.4688C88.0625 38.6979 88.4062 37.6667 88.4062 36.375C88.4062 35.625 88.2396 34.9167 87.9062 34.25C87.5938 33.5833 87.0938 33.0521 86.4062 32.6562C85.7396 32.2396 85.0833 31.9167 84.4375 31.6875C83.375 31.2917 82.3125 30.9688 81.25 30.7188C80.2083 30.4479 78.8333 30.0417 77.125 29.5C75.9792 29.1458 74.8958 28.6458 73.875 28C72.8542 27.3333 71.9583 26.4375 71.1875 25.3125C70.4375 24.1875 70.0625 22.6354 70.0625 20.6562C70.0625 18.6354 70.6771 16.8958 71.9062 15.4375C73.1354 13.9792 74.6771 12.9896 76.5312 12.4688C78.3854 11.9271 80.1875 11.6562 81.9375 11.6562C84.5208 11.6562 86.5938 11.9583 88.1562 12.5625C89.7396 13.1458 91.1042 13.8438 92.25 14.6562C92.9167 15.1354 93.0104 15.6875 92.5312 16.3125L91.125 18.1875C90.6875 18.7917 90.0104 18.7708 89.0938 18.125C88.3229 17.5833 87.2292 17.0729 85.8125 16.5938C84.3958 16.1146 83.1562 15.875 82.0938 15.875C80.7812 15.875 79.6562 16.0208 78.7188 16.3125C77.7812 16.6042 77.0208 17.1042 76.4375 17.8125C75.8542 18.5208 75.5625 19.3542 75.5625 20.3125C75.5625 21.0417 75.6771 21.6979 75.9062 22.2812C76.1354 22.8438 76.5625 23.3646 77.1875 23.8438C77.8125 24.3229 78.6875 24.7083 79.8125 25C81.5625 25.4583 83.1562 25.875 84.5938 26.25C86.0521 26.625 87.3646 27.0833 88.5312 27.625C90.0521 28.3333 91.2188 29.1146 92.0312 29.9688C92.8646 30.8229 93.4375 31.75 93.75 32.75C94.0625 33.7292 94.2188 34.8229 94.2188 36.0312C94.2188 38.2604 93.5521 40.1458 92.2188 41.6875C90.9062 43.2292 89.4375 44.2604 87.8125 44.7812C86.1875 45.2812 84.2292 45.5312 81.9375 45.5312C78.8333 45.5312 76.1667 45.0938 73.9375 44.2188C71.7292 43.3229 70.3021 42.5625 69.6562 41.9375ZM98.8438 16.3125C97.9062 16.3125 97.4375 15.9479 97.4375 15.2188V13.2812C97.4375 12.5521 97.9062 12.1875 98.8438 12.1875H102.531V9.375C102.531 8.95833 102.635 8.5625 102.844 8.1875L105.031 4.21875C105.427 3.48958 105.75 3.125 106 3.125H107.094C107.719 3.125 108.031 3.48958 108.031 4.21875V12.1875H114.688C115.625 12.1875 116.094 12.5521 116.094 13.2812V15.2188C116.094 15.9479 115.625 16.3125 114.688 16.3125H108.031V36.2188C108.031 38.4062 108.354 39.8333 109 40.5C109.667 41.1458 110.458 41.4688 111.375 41.4688C112.083 41.4688 112.927 41.2604 113.906 40.8438C114.906 40.4271 115.594 40.0729 115.969 39.7812C116.344 39.4896 116.635 39.5833 116.844 40.0625L117.875 42.4688C118.042 42.8854 117.917 43.2188 117.5 43.4688C116.688 43.9479 115.5 44.4167 113.938 44.875C112.375 45.3125 110.812 45.5312 109.25 45.5312C107.083 45.5312 105.417 44.75 104.25 43.1875C103.104 41.625 102.531 39.4167 102.531 36.5625V16.3125H98.8438ZM125.531 45C124.594 45 124.125 44.5312 124.125 43.5938V13.5938C124.125 12.6562 124.594 12.1875 125.531 12.1875H128.219C129.156 12.1875 129.625 12.6562 129.625 13.5938V43.5938C129.625 44.5312 129.156 45 128.219 45H125.531ZM125.531 6.25C124.594 6.25 124.125 5.78125 124.125 4.84375V2.15625C124.125 1.21875 124.594 0.75 125.531 0.75H128.219C129.156 0.75 129.625 1.21875 129.625 2.15625V4.84375C129.625 5.78125 129.156 6.25 128.219 6.25H125.531ZM139.906 45C138.969 45 138.5 44.5312 138.5 43.5938V13.5938C138.5 12.6562 138.969 12.1875 139.906 12.1875H142.531C143.469 12.1875 143.938 12.6562 143.938 13.5938V16.0938H144.062C145.417 14.5938 146.875 13.4792 148.438 12.75C150 12.0208 151.948 11.6562 154.281 11.6562C158.073 11.6562 160.792 12.7292 162.438 14.875C164.104 17 164.938 19.9167 164.938 23.625V43.5938C164.938 44.5312 164.469 45 163.531 45H160.844C159.906 45 159.438 44.5312 159.438 43.5938V25.125C159.438 21.0417 158.76 18.4583 157.406 17.375C156.052 16.2708 154.333 15.7188 152.25 15.7188C149.542 15.7188 147.49 16.5312 146.094 18.1562C144.698 19.7604 144 22.5208 144 26.4375V43.5938C144 44.5312 143.531 45 142.594 45H139.906ZM175.156 45C174.219 45 173.75 44.5312 173.75 43.5938V13.5938C173.75 12.6562 174.219 12.1875 175.156 12.1875H177.844C178.781 12.1875 179.25 12.6562 179.25 13.5938V43.5938C179.25 44.5312 178.781 45 177.844 45H175.156ZM175.156 6.25C174.219 6.25 173.75 5.78125 173.75 4.84375V2.15625C173.75 1.21875 174.219 0.75 175.156 0.75H177.844C178.781 0.75 179.25 1.21875 179.25 2.15625V4.84375C179.25 5.78125 178.781 6.25 177.844 6.25H175.156ZM186.531 16.3125C185.594 16.3125 185.125 15.9479 185.125 15.2188V13.2812C185.125 12.5521 185.594 12.1875 186.531 12.1875H190.219V9.375C190.219 8.95833 190.323 8.5625 190.531 8.1875L192.719 4.21875C193.115 3.48958 193.438 3.125 193.688 3.125H194.781C195.406 3.125 195.719 3.48958 195.719 4.21875V12.1875H202.375C203.312 12.1875 203.781 12.5521 203.781 13.2812V15.2188C203.781 15.9479 203.312 16.3125 202.375 16.3125H195.719V36.2188C195.719 38.4062 196.042 39.8333 196.688 40.5C197.354 41.1458 198.146 41.4688 199.062 41.4688C199.771 41.4688 200.615 41.2604 201.594 40.8438C202.594 40.4271 203.281 40.0729 203.656 39.7812C204.031 39.4896 204.323 39.5833 204.531 40.0625L205.562 42.4688C205.729 42.8854 205.604 43.2188 205.188 43.4688C204.375 43.9479 203.188 44.4167 201.625 44.875C200.062 45.3125 198.5 45.5312 196.938 45.5312C194.771 45.5312 193.104 44.75 191.938 43.1875C190.792 41.625 190.219 39.4167 190.219 36.5625V16.3125H186.531ZM209.531 13.7188C209.156 12.6979 209.438 12.1875 210.375 12.1875H213.781C214.469 12.1875 214.938 12.5938 215.188 13.4062L221.75 34.0312C221.938 34.5938 222.219 35.4792 222.594 36.6875C222.99 37.875 223.271 38.9375 223.438 39.875H223.5C223.667 38.9375 223.865 38.0938 224.094 37.3438C224.344 36.5729 224.708 35.4688 225.188 34.0312L231.812 13.4062C232.083 12.5938 232.552 12.1875 233.219 12.1875H236.625C237.562 12.1875 237.844 12.6979 237.469 13.7188L226.938 43.0938C224.958 48.6146 223.188 52.4792 221.625 54.6875C220.062 56.9167 217.729 58.0312 214.625 58.0312C213 58.0312 211.708 57.7917 210.75 57.3125C210.312 57.1042 210.167 56.7812 210.312 56.3438L211.125 53.8125C211.271 53.375 211.552 53.25 211.969 53.4375C212.823 53.7917 213.646 53.9688 214.438 53.9688C215.896 53.9688 217.083 53.1771 218 51.5938C218.917 50.0312 219.646 48.4583 220.188 46.875L220.812 45.0312L209.531 13.7188Z" fill="white"/>
</svg>
