<svg width="44" height="44" viewBox="0 0 44 44" fill="none" xmlns="http://www.w3.org/2000/svg">
<rect width="44" height="44" rx="22" fill="#704EED"/>
<path d="M22 22.75C18.83 22.75 16.25 20.17 16.25 17C16.25 13.83 18.83 11.25 22 11.25C25.17 11.25 27.75 13.83 27.75 17C27.75 20.17 25.17 22.75 22 22.75ZM22 12.75C19.66 12.75 17.75 14.66 17.75 17C17.75 19.34 19.66 21.25 22 21.25C24.34 21.25 26.25 19.34 26.25 17C26.25 14.66 24.34 12.75 22 12.75Z" fill="white"/>
<path d="M30.5901 32.75C30.1801 32.75 29.8401 32.41 29.8401 32C29.8401 28.55 26.3202 25.75 22.0002 25.75C17.6802 25.75 14.1602 28.55 14.1602 32C14.1602 32.41 13.8202 32.75 13.4102 32.75C13.0002 32.75 12.6602 32.41 12.6602 32C12.6602 27.73 16.8502 24.25 22.0002 24.25C27.1502 24.25 31.3401 27.73 31.3401 32C31.3401 32.41 31.0001 32.75 30.5901 32.75Z" fill="white"/>
</svg>
