<svg width="44" height="46" viewBox="0 0 44 46" fill="none" xmlns="http://www.w3.org/2000/svg">
<circle cx="22" cy="23.5" r="22" fill="#704EED"/>
<path d="M22.64 31.22H21.7C14.86 31.22 13.92 27.66 13.92 26.06V25.84H18.88C18.94 26.26 19.16 27.62 22.26 27.62C25.38 27.62 25.76 26.72 25.76 26.06V26.04C25.76 25.38 25.38 24.9 23.92 24.9H19.34V21.7H23.9C25.26 21.7 25.56 21.2 25.56 20.66C25.56 20.04 25.3 19.34 22.2 19.34C19.12 19.34 19.02 20.46 18.96 20.78H14.12V20.54C14.12 19.2 14.82 15.92 21.46 15.92H22.62C29.24 15.92 30.3 18.06 30.3 19.72V19.86C30.3 21.44 29.16 22.26 27.96 22.58C29.32 22.9 30.78 23.9 30.78 26V26.12C30.78 28.38 29.5 31.22 22.64 31.22Z" fill="white"/>
</svg>
