<svg width="44" height="46" viewBox="0 0 44 46" fill="none" xmlns="http://www.w3.org/2000/svg">
<circle cx="22" cy="23.5" r="22" fill="#704EED"/>
<path d="M30.58 31H14.18V28.62C14.18 26.42 14.7 24.4 20.42 22.8L22.68 22.18C24.82 21.64 25.24 21.26 25.24 20.62V20.6C25.24 19.88 24.76 19.3 22.42 19.3C19.6 19.3 19.42 20.74 19.36 21.42H14.44V21.28C14.44 19.28 15.36 15.92 21.86 15.92H22.86C28.62 15.92 30.26 17.96 30.26 20.6V20.76C30.26 23.42 28.48 24.54 24 25.34C23.2 25.5 22.36 25.66 21.66 25.82C18.76 26.42 18.28 26.9 18.28 27.22H30.58V31Z" fill="white"/>
</svg>
