<svg width="16" height="16" viewBox="0 0 16 16" fill="none" xmlns="http://www.w3.org/2000/svg">
<circle cx="8" cy="8" r="8" fill="#BDBDBD"/>
<path d="M7.33278 12.6324C7.0493 12.6324 6.82657 12.5447 6.66458 12.3692C6.5026 12.1937 6.4216 11.9541 6.4216 11.6503C6.4216 11.3399 6.49922 10.9214 6.65446 10.3949C6.81645 9.86173 6.97506 9.37914 7.1303 8.94718C7.29228 8.51521 7.37328 8.22836 7.37328 8.08662C7.37328 7.93813 7.32603 7.86389 7.23154 7.86389C6.99531 7.86389 6.61396 8.3296 6.0875 9.26103L5.40918 8.86618C6.40135 7.19231 7.31253 6.35538 8.14272 6.35538C8.70967 6.35538 8.99315 6.7131 8.99315 7.42854C8.99315 7.63778 8.92566 7.97188 8.79067 8.43084L8.06172 10.5164C7.98748 10.7122 7.95036 10.891 7.95036 11.053C7.95036 11.2083 8.0111 11.2859 8.13259 11.2859C8.36208 11.2859 8.78392 10.8607 9.39812 10.0102L9.82334 10.4051C9.45887 11.08 9.02353 11.62 8.51731 12.0249C8.01785 12.4299 7.62301 12.6324 7.33278 12.6324ZM10.2182 4.36034C10.2182 4.63032 10.1271 4.87667 9.94483 5.09941C9.76259 5.32214 9.51624 5.4335 9.20576 5.4335C8.89529 5.4335 8.66243 5.34239 8.50719 5.16015C8.35195 4.97117 8.27433 4.73493 8.27433 4.45146C8.27433 4.16798 8.36883 3.91825 8.55781 3.70226C8.75355 3.47953 9.00328 3.36816 9.307 3.36816C9.61073 3.36816 9.83684 3.46603 9.98533 3.66177C10.1406 3.85075 10.2182 4.08361 10.2182 4.36034Z" fill="white"/>
</svg>
