<svg width="100" height="100" viewBox="0 0 100 100" fill="none" xmlns="http://www.w3.org/2000/svg">
<path d="M74.0239 25.2671C68.0443 19.7557 60.6065 17 51.724 17C42.3867 17 34.4272 20.1303 27.859 26.4042C21.2908 32.6781 18 40.4771 18 49.8144C18 58.7637 21.1303 66.4557 27.3774 72.9035C33.6514 79.3513 42.079 82.5752 52.6872 82.5752C59.0815 82.5752 65.3554 81.2643 71.509 78.6289C73.5155 77.7728 74.4921 75.4719 73.6761 73.4519C72.8333 71.3651 70.4522 70.4019 68.3787 71.2848C63.0278 73.5857 57.7839 74.7362 52.6738 74.7362C44.5404 74.7362 38.2398 72.2614 33.7718 67.2984C29.3171 62.3488 27.0831 56.5297 27.0831 49.8545C27.0831 42.604 29.4777 36.5575 34.2533 31.7016C39.0156 26.859 44.8883 24.4244 51.8444 24.4244C58.2521 24.4244 63.6699 26.4176 68.0844 30.404C72.4989 34.3904 74.7061 39.4069 74.7061 45.4534C74.7061 49.587 73.6894 53.0383 71.6695 55.7806C69.6495 58.5363 67.5493 59.9008 65.3688 59.9008C64.1916 59.9008 63.603 59.2721 63.603 58.0012C63.603 56.9712 63.6833 55.7672 63.8304 54.376L66.3186 34.0292H57.7572L57.2087 36.0224C55.0282 34.2433 52.6337 33.347 50.0385 33.347C45.9183 33.347 42.3867 34.9924 39.4571 38.2698C36.5141 41.5472 35.056 45.7744 35.056 50.9381C35.056 55.9813 36.3536 60.0613 38.9621 63.1515C41.5707 66.255 44.701 67.7934 48.3663 67.7934C51.6438 67.7934 54.4396 66.4155 56.7672 63.6732C58.5197 66.3085 61.1015 67.6195 64.5127 67.6195C69.5291 67.6195 73.8633 65.439 77.5153 61.0646C81.1673 56.7036 83 51.433 83 45.2661C83 37.4538 80.0169 30.7786 74.0239 25.2671ZM54.3058 56.0482C52.7942 58.0815 50.9883 59.1115 48.888 59.1115C47.4567 59.1115 46.3062 58.3624 45.4367 56.8642C44.5538 55.3659 44.1124 53.5065 44.1124 51.2725C44.1124 48.5168 44.7277 46.2962 45.9584 44.6106C47.1891 42.9251 48.7141 42.0689 50.5334 42.0689C52.112 42.0689 53.5166 42.6977 54.7473 43.9685C55.978 45.2394 56.5933 46.9249 56.5933 49.0385C56.58 51.6738 55.8175 54.0014 54.3058 56.0482Z" fill="white"/>
</svg>
